<?xml version="1.0" encoding="UTF-8" standalone="no"?>
<svg
   xmlns:dc="http://purl.org/dc/elements/1.1/"
   xmlns:cc="http://creativecommons.org/ns#"
   xmlns:rdf="http://www.w3.org/1999/02/22-rdf-syntax-ns#"
   xmlns:svg="http://www.w3.org/2000/svg"
   xmlns="http://www.w3.org/2000/svg"
   id="svg15411"
   version="1.1"
   viewBox="0 0 131.36977 1.2112941"
   height="1.2112941mm"
   width="131.36977mm">
  <defs
     id="defs15405" />
  <metadata
     id="metadata15408">
    <rdf:RDF>
      <cc:Work
         rdf:about="">
        <dc:format>image/svg+xml</dc:format>
        <dc:type
           rdf:resource="http://purl.org/dc/dcmitype/StillImage" />
        <dc:title></dc:title>
      </cc:Work>
    </rdf:RDF>
  </metadata>
  <g
     transform="translate(-28.05321,-92.28721)"
     id="layer1">
    <path
       id="path14670"
       d="m 28.05321,92.893547 c 0,-0.334864 0.271473,-0.606337 0.606337,-0.606337 0.334864,0 0.606337,0.271473 0.606337,0.606337 0,0.334864 -0.271473,0.604957 -0.606337,0.604957 -0.334864,0 -0.606337,-0.270093 -0.606337,-0.604957"
       style="fill:#00546e;fill-opacity:1;fill-rule:nonzero;stroke:none;stroke-width:0.35277775" />
    <path
       id="path14672"
       d="m 31.22821,92.893547 c 0,-0.334864 0.271473,-0.606337 0.604958,-0.606337 0.334863,0 0.606336,0.271473 0.606336,0.606337 0,0.334864 -0.271473,0.604957 -0.606336,0.604957 -0.333485,0 -0.604958,-0.270093 -0.604958,-0.604957"
       style="fill:#00546e;fill-opacity:1;fill-rule:nonzero;stroke:none;stroke-width:0.35277775" />
    <path
       id="path14674"
       d="m 34.40321,92.893547 c 0,-0.334864 0.270094,-0.606337 0.604958,-0.606337 0.334863,0 0.606336,0.271473 0.606336,0.606337 0,0.334864 -0.271473,0.604957 -0.606336,0.604957 -0.334864,0 -0.604958,-0.270093 -0.604958,-0.604957"
       style="fill:#00546e;fill-opacity:1;fill-rule:nonzero;stroke:none;stroke-width:0.35277775" />
    <path
       id="path14676"
       d="m 37.576831,92.893547 c 0,-0.334864 0.271473,-0.606337 0.606336,-0.606337 0.334864,0 0.606337,0.271473 0.606337,0.606337 0,0.334864 -0.271473,0.604957 -0.606337,0.604957 -0.334863,0 -0.606336,-0.270093 -0.606336,-0.604957"
       style="fill:#00546e;fill-opacity:1;fill-rule:nonzero;stroke:none;stroke-width:0.35277775" />
    <path
       id="path14678"
       d="m 40.75183,92.893547 c 0,-0.334864 0.271473,-0.606337 0.606337,-0.606337 0.334864,0 0.604957,0.271473 0.604957,0.606337 0,0.334864 -0.270093,0.604957 -0.604957,0.604957 -0.334864,0 -0.606337,-0.270093 -0.606337,-0.604957"
       style="fill:#00546e;fill-opacity:1;fill-rule:nonzero;stroke:none;stroke-width:0.35277775" />
    <path
       id="path14680"
       d="m 43.92683,92.893547 c 0,-0.334864 0.271473,-0.606337 0.604958,-0.606337 0.334863,0 0.606336,0.271473 0.606336,0.606337 0,0.334864 -0.271473,0.604957 -0.606336,0.604957 -0.333485,0 -0.604958,-0.270093 -0.604958,-0.604957"
       style="fill:#00546e;fill-opacity:1;fill-rule:nonzero;stroke:none;stroke-width:0.35277775" />
    <path
       id="path14682"
       d="m 47.100451,92.893547 c 0,-0.334864 0.271476,-0.606337 0.606337,-0.606337 0.334863,0 0.606336,0.271473 0.606336,0.606337 0,0.334864 -0.271473,0.604957 -0.606336,0.604957 -0.334861,0 -0.606337,-0.270093 -0.606337,-0.604957"
       style="fill:#00546e;fill-opacity:1;fill-rule:nonzero;stroke:none;stroke-width:0.35277775" />
    <path
       id="path14684"
       d="m 50.275451,92.893547 c 0,-0.334864 0.271476,-0.606337 0.606337,-0.606337 0.334863,0 0.60496,0.271473 0.60496,0.606337 0,0.334864 -0.270097,0.604957 -0.60496,0.604957 -0.334861,0 -0.606337,-0.270093 -0.606337,-0.604957"
       style="fill:#00546e;fill-opacity:1;fill-rule:nonzero;stroke:none;stroke-width:0.35277775" />
    <path
       id="path14686"
       d="m 53.450451,92.893547 c 0,-0.334864 0.271476,-0.606337 0.604961,-0.606337 0.334863,0 0.606335,0.271473 0.606335,0.606337 0,0.334864 -0.271472,0.604957 -0.606335,0.604957 -0.333485,0 -0.604961,-0.270093 -0.604961,-0.604957"
       style="fill:#00546e;fill-opacity:1;fill-rule:nonzero;stroke:none;stroke-width:0.35277775" />
    <path
       id="path14688"
       d="m 56.62545,92.893547 c 0,-0.334864 0.270098,-0.606337 0.604962,-0.606337 0.334867,0 0.60633,0.271473 0.60633,0.606337 0,0.334864 -0.271463,0.604957 -0.60633,0.604957 -0.334864,0 -0.604962,-0.270093 -0.604962,-0.604957"
       style="fill:#00546e;fill-opacity:1;fill-rule:nonzero;stroke:none;stroke-width:0.35277775" />
    <path
       id="path14690"
       d="m 59.799067,92.893547 c 0,-0.334864 0.271462,-0.606337 0.606356,-0.606337 0.334856,0 0.606319,0.271473 0.606319,0.606337 0,0.334864 -0.271463,0.604957 -0.606319,0.604957 -0.334894,0 -0.606356,-0.270093 -0.606356,-0.604957"
       style="fill:#00546e;fill-opacity:1;fill-rule:nonzero;stroke:none;stroke-width:0.35277775" />
    <path
       id="path14692"
       d="m 62.974067,92.893547 c 0,-0.334864 0.271462,-0.606337 0.60498,-0.606337 0.334857,0 0.606319,0.271473 0.606319,0.606337 0,0.334864 -0.271462,0.604957 -0.606319,0.604957 -0.333518,0 -0.60498,-0.270093 -0.60498,-0.604957"
       style="fill:#00546e;fill-opacity:1;fill-rule:nonzero;stroke:none;stroke-width:0.35277775" />
    <path
       id="path14694"
       d="m 66.149067,92.893547 c 0,-0.334864 0.271499,-0.606337 0.60498,-0.606337 0.334857,0 0.606319,0.271473 0.606319,0.606337 0,0.334864 -0.271462,0.604957 -0.606319,0.604957 -0.333481,0 -0.60498,-0.270093 -0.60498,-0.604957"
       style="fill:#00546e;fill-opacity:1;fill-rule:nonzero;stroke:none;stroke-width:0.35277775" />
    <path
       id="path14696"
       d="m 69.322691,92.893547 c 0,-0.334864 0.271462,-0.606337 0.606356,-0.606337 0.334857,0 0.606319,0.271473 0.606319,0.606337 0,0.334864 -0.271462,0.604957 -0.606319,0.604957 -0.334894,0 -0.606356,-0.270093 -0.606356,-0.604957"
       style="fill:#00546e;fill-opacity:1;fill-rule:nonzero;stroke:none;stroke-width:0.35277775" />
    <path
       id="path14698"
       d="m 72.497691,92.893547 c 0,-0.334864 0.271462,-0.606337 0.606356,-0.606337 0.334857,0 0.604943,0.271473 0.604943,0.606337 0,0.334864 -0.270086,0.604957 -0.604943,0.604957 -0.334894,0 -0.606356,-0.270093 -0.606356,-0.604957"
       style="fill:#00546e;fill-opacity:1;fill-rule:nonzero;stroke:none;stroke-width:0.35277775" />
    <path
       id="path14700"
       d="m 75.672691,92.893547 c 0,-0.334864 0.271462,-0.606337 0.60498,-0.606337 0.334857,0 0.606319,0.271473 0.606319,0.606337 0,0.334864 -0.271462,0.604957 -0.606319,0.604957 -0.333518,0 -0.60498,-0.270093 -0.60498,-0.604957"
       style="fill:#00546e;fill-opacity:1;fill-rule:nonzero;stroke:none;stroke-width:0.35277775" />
    <path
       id="path14702"
       d="m 78.846315,92.893547 c 0,-0.334864 0.271462,-0.606337 0.606356,-0.606337 0.334857,0 0.606319,0.271473 0.606319,0.606337 0,0.334864 -0.271462,0.604957 -0.606319,0.604957 -0.334894,0 -0.606356,-0.270093 -0.606356,-0.604957"
       style="fill:#00546e;fill-opacity:1;fill-rule:nonzero;stroke:none;stroke-width:0.35277775" />
    <path
       id="path14704"
       d="m 82.021315,92.893547 c 0,-0.334864 0.271462,-0.606337 0.606354,-0.606337 0.334856,0 0.604943,0.271473 0.604943,0.606337 0,0.334864 -0.270087,0.604957 -0.604943,0.604957 -0.334892,0 -0.606354,-0.270093 -0.606354,-0.604957"
       style="fill:#00546e;fill-opacity:1;fill-rule:nonzero;stroke:none;stroke-width:0.35277775" />
    <path
       id="path14706"
       d="m 85.196315,92.893547 c 0,-0.334864 0.271462,-0.606337 0.606354,-0.606337 0.33348,0 0.604943,0.271473 0.604943,0.606337 0,0.334864 -0.271463,0.604957 -0.604943,0.604957 -0.334892,0 -0.606354,-0.270093 -0.606354,-0.604957"
       style="fill:#00546e;fill-opacity:1;fill-rule:nonzero;stroke:none;stroke-width:0.35277775" />
    <path
       id="path14708"
       d="m 88.371315,92.893547 c 0,-0.334864 0.270087,-0.606337 0.604978,-0.606337 0.334856,0 0.606319,0.271473 0.606319,0.606337 0,0.334864 -0.271463,0.604957 -0.606319,0.604957 -0.334891,0 -0.604978,-0.270093 -0.604978,-0.604957"
       style="fill:#00546e;fill-opacity:1;fill-rule:nonzero;stroke:none;stroke-width:0.35277775" />
    <path
       id="path14710"
       d="m 91.544939,92.893547 c 0,-0.334864 0.271463,-0.606337 0.606354,-0.606337 0.334856,0 0.606319,0.271473 0.606319,0.606337 0,0.334864 -0.271463,0.604957 -0.606319,0.604957 -0.334891,0 -0.606354,-0.270093 -0.606354,-0.604957"
       style="fill:#00546e;fill-opacity:1;fill-rule:nonzero;stroke:none;stroke-width:0.35277775" />
    <path
       id="path14712"
       d="m 94.719939,92.893547 c 0,-0.334864 0.271463,-0.606337 0.606354,-0.606337 0.333481,0 0.604943,0.271473 0.604943,0.606337 0,0.334864 -0.271462,0.604957 -0.604943,0.604957 -0.334891,0 -0.606354,-0.270093 -0.606354,-0.604957"
       style="fill:#00546e;fill-opacity:1;fill-rule:nonzero;stroke:none;stroke-width:0.35277775" />
    <path
       id="path14714"
       d="m 97.894939,92.893547 c 0,-0.334864 0.270087,-0.606337 0.604943,-0.606337 0.334892,0 0.606354,0.271473 0.606354,0.606337 0,0.334864 -0.271462,0.604957 -0.606354,0.604957 -0.334856,0 -0.604943,-0.270093 -0.604943,-0.604957"
       style="fill:#00546e;fill-opacity:1;fill-rule:nonzero;stroke:none;stroke-width:0.35277775" />
    <path
       id="path14716"
       d="m 101.06856,92.893547 c 0,-0.334864 0.27147,-0.606337 0.60632,-0.606337 0.33489,0 0.60636,0.271473 0.60636,0.606337 0,0.334864 -0.27147,0.604957 -0.60636,0.604957 -0.33485,0 -0.60632,-0.270093 -0.60632,-0.604957"
       style="fill:#00546e;fill-opacity:1;fill-rule:nonzero;stroke:none;stroke-width:0.35277775" />
    <path
       id="path14718"
       d="m 104.24356,92.893547 c 0,-0.334864 0.27147,-0.606337 0.60632,-0.606337 0.33489,0 0.60498,0.271473 0.60498,0.606337 0,0.334864 -0.27009,0.604957 -0.60498,0.604957 -0.33485,0 -0.60632,-0.270093 -0.60632,-0.604957"
       style="fill:#00546e;fill-opacity:1;fill-rule:nonzero;stroke:none;stroke-width:0.35277775" />
    <path
       id="path14720"
       d="m 107.41856,92.893547 c 0,-0.334864 0.27147,-0.606337 0.60495,-0.606337 0.33489,0 0.60635,0.271473 0.60635,0.606337 0,0.334864 -0.27146,0.604957 -0.60635,0.604957 -0.33348,0 -0.60495,-0.270093 -0.60495,-0.604957"
       style="fill:#00546e;fill-opacity:1;fill-rule:nonzero;stroke:none;stroke-width:0.35277775" />
    <path
       id="path14722"
       d="m 110.59219,92.893547 c 0,-0.334864 0.27146,-0.606337 0.60632,-0.606337 0.33489,0 0.60635,0.271473 0.60635,0.606337 0,0.334864 -0.27146,0.604957 -0.60635,0.604957 -0.33486,0 -0.60632,-0.270093 -0.60632,-0.604957"
       style="fill:#00546e;fill-opacity:1;fill-rule:nonzero;stroke:none;stroke-width:0.35277775" />
    <path
       id="path14724"
       d="m 113.76719,92.893547 c 0,-0.334864 0.27146,-0.606337 0.60632,-0.606337 0.33489,0 0.60497,0.271473 0.60497,0.606337 0,0.334864 -0.27008,0.604957 -0.60497,0.604957 -0.33486,0 -0.60632,-0.270093 -0.60632,-0.604957"
       style="fill:#00546e;fill-opacity:1;fill-rule:nonzero;stroke:none;stroke-width:0.35277775" />
    <path
       id="path14726"
       d="m 116.94219,92.893547 c 0,-0.334864 0.27146,-0.606337 0.60494,-0.606337 0.33489,0 0.60635,0.271473 0.60635,0.606337 0,0.334864 -0.27146,0.604957 -0.60635,0.604957 -0.33348,0 -0.60494,-0.270093 -0.60494,-0.604957"
       style="fill:#00546e;fill-opacity:1;fill-rule:nonzero;stroke:none;stroke-width:0.35277775" />
    <path
       id="path14728"
       d="m 120.11581,92.893547 c 0,-0.334864 0.27146,-0.606337 0.60632,-0.606337 0.33489,0 0.60635,0.271473 0.60635,0.606337 0,0.334864 -0.27146,0.604957 -0.60635,0.604957 -0.33486,0 -0.60632,-0.270093 -0.60632,-0.604957"
       style="fill:#00546e;fill-opacity:1;fill-rule:nonzero;stroke:none;stroke-width:0.35277775" />
    <path
       id="path14730"
       d="m 123.29081,92.893547 c 0,-0.334864 0.27146,-0.606337 0.60632,-0.606337 0.33489,0 0.60635,0.271473 0.60635,0.606337 0,0.334864 -0.27146,0.604957 -0.60635,0.604957 -0.33486,0 -0.60632,-0.270093 -0.60632,-0.604957"
       style="fill:#00546e;fill-opacity:1;fill-rule:nonzero;stroke:none;stroke-width:0.35277775" />
    <path
       id="path14732"
       d="m 126.46581,92.893547 c 0,-0.334864 0.27146,-0.606337 0.60495,-0.606337 0.33485,0 0.60635,0.271473 0.60635,0.606337 0,0.334864 -0.2715,0.604957 -0.60635,0.604957 -0.33349,0 -0.60495,-0.270093 -0.60495,-0.604957"
       style="fill:#00546e;fill-opacity:1;fill-rule:nonzero;stroke:none;stroke-width:0.35277775" />
    <path
       id="path14734"
       d="m 129.64081,92.893547 c 0,-0.334864 0.27009,-0.606337 0.60494,-0.606337 0.33486,0 0.60636,0.271473 0.60636,0.606337 0,0.334864 -0.2715,0.604957 -0.60636,0.604957 -0.33485,0 -0.60494,-0.270093 -0.60494,-0.604957"
       style="fill:#00546e;fill-opacity:1;fill-rule:nonzero;stroke:none;stroke-width:0.35277775" />
    <path
       id="path14736"
       d="m 132.81444,92.893547 c 0,-0.334864 0.27146,-0.606337 0.60631,-0.606337 0.33486,0 0.60636,0.271473 0.60636,0.606337 0,0.334864 -0.2715,0.604957 -0.60636,0.604957 -0.33485,0 -0.60631,-0.270093 -0.60631,-0.604957"
       style="fill:#00546e;fill-opacity:1;fill-rule:nonzero;stroke:none;stroke-width:0.35277775" />
    <path
       id="path14738"
       d="m 135.98944,92.893547 c 0,-0.334864 0.27146,-0.606337 0.60631,-0.606337 0.33486,0 0.60498,0.271473 0.60498,0.606337 0,0.334864 -0.27012,0.604957 -0.60498,0.604957 -0.33485,0 -0.60631,-0.270093 -0.60631,-0.604957"
       style="fill:#00546e;fill-opacity:1;fill-rule:nonzero;stroke:none;stroke-width:0.35277775" />
    <path
       id="path14740"
       d="m 139.16444,92.893547 c 0,-0.334864 0.27146,-0.606337 0.60494,-0.606337 0.33486,0 0.60635,0.271473 0.60635,0.606337 0,0.334864 -0.27149,0.604957 -0.60635,0.604957 -0.33348,0 -0.60494,-0.270093 -0.60494,-0.604957"
       style="fill:#00546e;fill-opacity:1;fill-rule:nonzero;stroke:none;stroke-width:0.35277775" />
    <path
       id="path14742"
       d="m 142.33806,92.893547 c 0,-0.334864 0.27146,-0.606337 0.60632,-0.606337 0.33486,0 0.60635,0.271473 0.60635,0.606337 0,0.334864 -0.27149,0.604957 -0.60635,0.604957 -0.33486,0 -0.60632,-0.270093 -0.60632,-0.604957"
       style="fill:#00546e;fill-opacity:1;fill-rule:nonzero;stroke:none;stroke-width:0.35277775" />
    <path
       id="path14744"
       d="m 145.51306,92.893547 c 0,-0.334864 0.27146,-0.606337 0.60632,-0.606337 0.33486,0 0.60498,0.271473 0.60498,0.606337 0,0.334864 -0.27012,0.604957 -0.60498,0.604957 -0.33486,0 -0.60632,-0.270093 -0.60632,-0.604957"
       style="fill:#00546e;fill-opacity:1;fill-rule:nonzero;stroke:none;stroke-width:0.35277775" />
    <path
       id="path14746"
       d="m 148.68806,92.893547 c 0,-0.334864 0.27146,-0.606337 0.60494,-0.606337 0.33486,0 0.60636,0.271473 0.60636,0.606337 0,0.334864 -0.2715,0.604957 -0.60636,0.604957 -0.33348,0 -0.60494,-0.270093 -0.60494,-0.604957"
       style="fill:#00546e;fill-opacity:1;fill-rule:nonzero;stroke:none;stroke-width:0.35277775" />
    <path
       id="path14748"
       d="m 151.86168,92.893547 c 0,-0.334864 0.27146,-0.606337 0.60632,-0.606337 0.33486,0 0.60636,0.271473 0.60636,0.606337 0,0.334864 -0.2715,0.604957 -0.60636,0.604957 -0.33486,0 -0.60632,-0.270093 -0.60632,-0.604957"
       style="fill:#00546e;fill-opacity:1;fill-rule:nonzero;stroke:none;stroke-width:0.35277775" />
    <path
       id="path14750"
       d="m 155.03668,92.893547 c 0,-0.334864 0.27146,-0.606337 0.60632,-0.606337 0.33486,0 0.60636,0.271473 0.60636,0.606337 0,0.334864 -0.2715,0.604957 -0.60636,0.604957 -0.33486,0 -0.60632,-0.270093 -0.60632,-0.604957"
       style="fill:#00546e;fill-opacity:1;fill-rule:nonzero;stroke:none;stroke-width:0.35277775" />
    <path
       id="path14752"
       d="m 158.21168,92.893547 c 0,-0.334864 0.27146,-0.606337 0.60494,-0.606337 0.33486,0 0.60636,0.271473 0.60636,0.606337 0,0.334864 -0.2715,0.604957 -0.60636,0.604957 -0.33348,0 -0.60494,-0.270093 -0.60494,-0.604957"
       style="fill:#00546e;fill-opacity:1;fill-rule:nonzero;stroke:none;stroke-width:0.35277775" />
  </g>
</svg>
