<?xml version="1.0" encoding="UTF-8" standalone="no"?>
<svg
   xmlns:dc="http://purl.org/dc/elements/1.1/"
   xmlns:cc="http://creativecommons.org/ns#"
   xmlns:rdf="http://www.w3.org/1999/02/22-rdf-syntax-ns#"
   xmlns:svg="http://www.w3.org/2000/svg"
   xmlns="http://www.w3.org/2000/svg"
   id="svg14878"
   version="1.1"
   viewBox="0 0 16.273127 101.20863"
   height="101.20863mm"
   width="16.273127mm">
  <defs
     id="defs14872" />
  <metadata
     id="metadata14875">
    <rdf:RDF>
      <cc:Work
         rdf:about="">
        <dc:format>image/svg+xml</dc:format>
        <dc:type
           rdf:resource="http://purl.org/dc/dcmitype/StillImage" />
        <dc:title></dc:title>
      </cc:Work>
    </rdf:RDF>
  </metadata>
  <g
     transform="translate(-97.247677,-57.407585)"
     id="layer1">
    <path
       id="path642"
       d="M 105.24738,60.629438 V 158.61622"
       style="fill:none;stroke:#00546e;stroke-width:0.35277775;stroke-linecap:butt;stroke-linejoin:miter;stroke-miterlimit:10;stroke-opacity:1" />
    <path
       id="path738"
       d="m 105.24462,67.481045 c 0,-2.10702 1.70877,-3.81441 3.81441,-3.81441 0.81856,0 1.57648,0.257694 2.19797,0.695909"
       style="fill:none;stroke:#00546e;stroke-width:0.35277775;stroke-linecap:butt;stroke-linejoin:miter;stroke-miterlimit:10;stroke-opacity:1" />
    <path
       id="path740"
       d="m 113.43017,64.843479 -1.05145,-0.629763 c -0.47955,-0.276986 -1.02663,-0.224621 -1.22369,0.114377 -0.19569,0.340375 0.0331,0.840603 0.51263,1.117588 l 1.06246,0.62563"
       style="fill:none;stroke:#00546e;stroke-width:0.35277775;stroke-linecap:butt;stroke-linejoin:miter;stroke-miterlimit:10;stroke-opacity:1" />
    <path
       id="path742"
       d="m 101.06779,63.684548 c -0.59669,0.165364 -0.7345,0.59669 -0.7345,0.59669 -0.11713,0.296279 -0.23151,0.502984 -0.530542,0.770324 l -0.899859,0.643544 c -0.80064,0.410655 -1.37666,-0.129536 -1.37666,-0.129536 l 1.706011,-1.203027 h 0.0014 c 0.621495,-0.438217 1.37942,-0.69591 2.19797,-0.69591 2.10564,0 3.81303,1.707389 3.81303,3.81441"
       style="fill:none;stroke:#00546e;stroke-width:0.35277775;stroke-linecap:butt;stroke-linejoin:miter;stroke-miterlimit:10;stroke-opacity:1" />
    <path
       id="path744"
       d="m 104.22763,59.283095 c 0,-0.744141 0.45613,-1.699121 1.01975,-1.699121 0.56361,0 1.02112,0.95498 1.02112,1.699121 0,0.742762 -0.45751,1.344965 -1.02112,1.344965 -0.56362,0 -1.01975,-0.602203 -1.01975,-1.344965 z m 0,0"
       style="fill:none;stroke:#00546e;stroke-width:0.35277775;stroke-linecap:butt;stroke-linejoin:miter;stroke-miterlimit:10;stroke-opacity:1" />
    <path
       id="path746"
       d="m 112.10587,64.605077 1.09417,0.63941"
       style="fill:none;stroke:#00546e;stroke-width:0.35277775;stroke-linecap:butt;stroke-linejoin:miter;stroke-miterlimit:10;stroke-opacity:1" />
    <path
       id="path748"
       d="m 111.88539,64.988172 1.09554,0.639409"
       style="fill:none;stroke:#00546e;stroke-width:0.35277775;stroke-linecap:butt;stroke-linejoin:miter;stroke-miterlimit:10;stroke-opacity:1" />
    <path
       id="path774"
       d="m 109.64194,60.728657 c 1.1231,0 2.03261,0.910883 2.03261,2.033984 -1.1231,0 -2.03261,-0.910883 -2.03261,-2.033984 z m 0,0"
       style="fill:none;stroke:#00546e;stroke-width:0.35277775;stroke-linecap:butt;stroke-linejoin:miter;stroke-miterlimit:10;stroke-opacity:1" />
    <path
       id="path776"
       d="m 111.67455,58.551356 c -1.1231,0 -2.03261,0.910883 -2.03261,2.033984 1.1231,0 2.03261,-0.910883 2.03261,-2.033984 z m 0,0"
       style="fill:none;stroke:#00546e;stroke-width:0.35277775;stroke-linecap:butt;stroke-linejoin:miter;stroke-miterlimit:10;stroke-opacity:1" />
    <path
       id="path778"
       d="m 109.64194,60.728657 c 0,0 -4.38905,0.855761 -4.38905,5.903515"
       style="fill:none;stroke:#00546e;stroke-width:0.35277775;stroke-linecap:butt;stroke-linejoin:miter;stroke-miterlimit:10;stroke-opacity:1" />
    <path
       id="path780"
       d="m 100.85419,60.728657 c -1.1231,0 -2.033984,0.910883 -2.033984,2.033984 1.123102,0 2.033984,-0.910883 2.033984,-2.033984 z m 0,0"
       style="fill:none;stroke:#00546e;stroke-width:0.35277775;stroke-linecap:butt;stroke-linejoin:miter;stroke-miterlimit:10;stroke-opacity:1" />
    <path
       id="path782"
       d="m 98.820206,58.551356 c 1.123102,0 2.033984,0.910883 2.033984,2.033984 -1.1231,0 -2.033984,-0.910883 -2.033984,-2.033984 z m 0,0"
       style="fill:none;stroke:#00546e;stroke-width:0.35277775;stroke-linecap:butt;stroke-linejoin:miter;stroke-miterlimit:10;stroke-opacity:1" />
    <path
       id="path784"
       d="m 100.85419,60.728657 c 0,0 4.38905,0.855761 4.38905,5.903515"
       style="fill:none;stroke:#00546e;stroke-width:0.35277775;stroke-linecap:butt;stroke-linejoin:miter;stroke-miterlimit:10;stroke-opacity:1" />
  </g>
</svg>
