<?xml version="1.0" encoding="UTF-8" standalone="no"?>
<!-- Created with Inkscape (http://www.inkscape.org/) -->

<svg
   xmlns:dc="http://purl.org/dc/elements/1.1/"
   xmlns:cc="http://creativecommons.org/ns#"
   xmlns:rdf="http://www.w3.org/1999/02/22-rdf-syntax-ns#"
   xmlns:svg="http://www.w3.org/2000/svg"
   xmlns="http://www.w3.org/2000/svg"
   xmlns:sodipodi="http://sodipodi.sourceforge.net/DTD/sodipodi-0.dtd"
   xmlns:inkscape="http://www.inkscape.org/namespaces/inkscape"
   width="77.085999mm"
   height="16.494301mm"
   viewBox="0 0 77.085999 16.494301"
   version="1.1"
   id="svg2884"
   sodipodi:docname="element2.svg"
   inkscape:version="0.92.5 (2060ec1f9f, 2020-04-08)">
  <defs
     id="defs2878" />
  <sodipodi:namedview
     id="base"
     pagecolor="#ffffff"
     bordercolor="#666666"
     borderopacity="1.0"
     inkscape:pageopacity="0.0"
     inkscape:pageshadow="2"
     inkscape:zoom="11.2"
     inkscape:cx="15.24441"
     inkscape:cy="29.14508"
     inkscape:document-units="mm"
     inkscape:current-layer="layer1"
     showgrid="false"
     inkscape:window-width="1920"
     inkscape:window-height="1055"
     inkscape:window-x="1920"
     inkscape:window-y="0"
     inkscape:window-maximized="1"
     fit-margin-top="0"
     fit-margin-left="0"
     fit-margin-right="0"
     fit-margin-bottom="0" />
  <metadata
     id="metadata2881">
    <rdf:RDF>
      <cc:Work
         rdf:about="">
        <dc:format>image/svg+xml</dc:format>
        <dc:type
           rdf:resource="http://purl.org/dc/dcmitype/StillImage" />
        <dc:title></dc:title>
      </cc:Work>
    </rdf:RDF>
  </metadata>
  <g
     inkscape:label="Layer 1"
     inkscape:groupmode="layer"
     id="layer1"
     transform="translate(-34.028428,-92.205229)">
    <path
       style="fill:none;stroke:#004c66;stroke-width:0.63881427;stroke-linecap:butt;stroke-linejoin:miter;stroke-miterlimit:10;stroke-opacity:1"
       d="M 111.11443,100.39726 H 48.367427"
       id="path2735"
       inkscape:connector-curvature="0" />
    <path
       style="fill:none;stroke:#004c66;stroke-width:0.70555556;stroke-linecap:butt;stroke-linejoin:miter;stroke-miterlimit:10;stroke-opacity:1"
       d="m 80.244998,100.39726 c -2.625164,0 -4.754234,2.12907 -4.754234,4.75561 2.626542,0 4.754234,-2.12907 4.754234,-4.75561 z m 0,0"
       id="path2737"
       inkscape:connector-curvature="0" />
    <path
       style="fill:none;stroke:#004c66;stroke-width:0.70555556;stroke-linecap:butt;stroke-linejoin:miter;stroke-miterlimit:10;stroke-opacity:1"
       d="m 75.489385,95.641649 c 2.626543,0 4.75561,2.129069 4.75561,4.755611 -2.62654,0 -4.75561,-2.12907 -4.75561,-4.755611 z m 0,0"
       id="path2739"
       inkscape:connector-curvature="0" />
    <path
       style="fill:none;stroke:#004c66;stroke-width:0.70555556;stroke-linecap:butt;stroke-linejoin:miter;stroke-miterlimit:10;stroke-opacity:1"
       d="m 80.244998,100.39726 c 2.62654,0 4.755608,-2.12907 4.755608,-4.755611 -2.62654,0 -4.755608,2.129069 -4.755608,4.755611 z m 0,0"
       id="path2741"
       inkscape:connector-curvature="0" />
    <path
       style="fill:none;stroke:#004c66;stroke-width:0.70555556;stroke-linecap:butt;stroke-linejoin:miter;stroke-miterlimit:10;stroke-opacity:1"
       d="m 85.000608,105.15287 c -2.625161,0 -4.754232,-2.12907 -4.754232,-4.75561 2.625165,0 4.754232,2.12907 4.754232,4.75561 z m 0,0"
       id="path2743"
       inkscape:connector-curvature="0" />
    <path
       style="fill:none;stroke:#004c66;stroke-width:0.69157243;stroke-linecap:butt;stroke-linejoin:miter;stroke-miterlimit:10;stroke-opacity:1"
       d="m 36.568986,97.448258 4.388921,2.935222 -4.636501,2.48874"
       id="path2745"
       inkscape:connector-curvature="0" />
    <path
       style="fill:none;stroke:#004c66;stroke-width:0.70555556;stroke-linecap:butt;stroke-linejoin:miter;stroke-miterlimit:10;stroke-opacity:1"
       d="m 41.147296,100.38348 -4.978852,-0.23702"
       id="path2747"
       inkscape:connector-curvature="0" />
    <path
       style="fill:none;fill-opacity:1;fill-rule:nonzero;stroke:none;stroke-width:0.35277778"
       d="m 34.636066,103.63427 c 0.21084,0.46578 0.757921,0.67248 1.223698,0.46164 0.465777,-0.21084 0.672483,-0.75792 0.461642,-1.22369 -0.210839,-0.46578 -0.75792,-0.67249 -1.223698,-0.46165 -0.465776,0.21084 -0.672482,0.75792 -0.461642,1.2237"
       id="path2749"
       inkscape:connector-curvature="0" />
    <path
       style="fill:none;stroke:#004c66;stroke-width:0.70555556;stroke-linecap:butt;stroke-linejoin:miter;stroke-miterlimit:10;stroke-opacity:1"
       d="m 34.636066,103.63427 c 0.210839,0.46578 0.757921,0.67248 1.223698,0.46164 0.465776,-0.21084 0.672482,-0.75792 0.461642,-1.22369 -0.21084,-0.46578 -0.757921,-0.67249 -1.223698,-0.46165 -0.465776,0.21084 -0.672482,0.75792 -0.461642,1.2237 z m 0,0"
       id="path2751"
       inkscape:connector-curvature="0" />
    <path
       style="fill:none;fill-opacity:1;fill-rule:nonzero;stroke:none;stroke-width:0.35277778"
       d="m 34.992978,97.413807 c 0.21084,0.464399 0.757921,0.671104 1.223698,0.461643 0.465777,-0.21084 0.672483,-0.7593 0.461643,-1.223698 -0.21084,-0.465777 -0.757921,-0.672483 -1.223699,-0.461643 -0.465776,0.21084 -0.672482,0.757921 -0.461642,1.223698"
       id="path2753"
       inkscape:connector-curvature="0" />
    <path
       style="fill:none;stroke:#004c66;stroke-width:0.70555556;stroke-linecap:butt;stroke-linejoin:miter;stroke-miterlimit:10;stroke-opacity:1"
       d="m 34.992977,97.413806 c 0.21084,0.464399 0.757921,0.671105 1.223698,0.461643 0.465777,-0.21084 0.672483,-0.759299 0.461643,-1.223698 -0.21084,-0.465777 -0.757921,-0.672482 -1.223698,-0.461643 -0.465777,0.21084 -0.672482,0.757921 -0.461643,1.223698 z m 0,0"
       id="path2755"
       inkscape:connector-curvature="0" />
    <path
       style="fill:none;fill-opacity:1;fill-rule:nonzero;stroke:none;stroke-width:0.35277778"
       d="m 34.462433,100.48683 c 0.21084,0.46578 0.757921,0.67249 1.223698,0.46165 0.465777,-0.21084 0.672483,-0.75793 0.461643,-1.223703 -0.21084,-0.465777 -0.757921,-0.672482 -1.223698,-0.461643 -0.465777,0.21084 -0.672483,0.757926 -0.461643,1.223696"
       id="path2757"
       inkscape:connector-curvature="0" />
    <path
       style="fill:none;stroke:#004c66;stroke-width:0.70555556;stroke-linecap:butt;stroke-linejoin:miter;stroke-miterlimit:10;stroke-opacity:1"
       d="m 34.462433,100.48683 c 0.21084,0.46578 0.757921,0.67248 1.223698,0.46164 0.465777,-0.21084 0.672482,-0.75792 0.461643,-1.223694 -0.21084,-0.465776 -0.757921,-0.672482 -1.223698,-0.461642 -0.465777,0.21084 -0.672483,0.757916 -0.461643,1.223696 z m 0,0"
       id="path2759"
       inkscape:connector-curvature="0" />
    <path
       style="fill:none;fill-opacity:1;fill-rule:nonzero;stroke:#004c66;stroke-width:0.70555556;stroke-linecap:butt;stroke-linejoin:bevel;stroke-miterlimit:10;stroke-opacity:1"
       d="m 49.571244,100.39726 c -4.554416,0.0303 -8.269608,-3.636644 -8.299925,-8.189682 l 0.108865,16.489602 c -0.03032,-4.55304 3.636644,-8.2696 8.19106,-8.29992"
       id="path2761"
       inkscape:connector-curvature="0" />
  </g>
</svg>
