<svg version="1.1" id="Layer_1" xmlns="http://www.w3.org/2000/svg" xmlns:xlink="http://www.w3.org/1999/xlink" x="0px" y="0px"
	 viewBox="0 0 391.89 288.24" width="48" height="48" style="enable-background:new 0 0 391.89 288.24;" xml:space="preserve">
<style type="text/css">
	.st0{fill:#005470;}
</style>
<g>
	<g>
		<path class="st0" d="M201.48,288.24c-17.11,0-34.5-3.26-51.28-10.15c-69.1-28.38-102.24-107.7-73.86-176.8
			C104.71,32.18,184.02-0.96,253.12,27.42C322.22,55.79,355.37,135.1,327,204.21C305.51,256.52,254.82,288.24,201.48,288.24z
			 M201.65,33.88c-15.52,0-31.04,3.08-45.8,9.25c-29.28,12.24-52.04,35.14-64.1,64.5c-24.88,60.6,4.18,130.14,64.78,155.02
			c60.58,24.87,130.14-4.19,155.02-64.78s-4.19-130.14-64.78-155.02C232.22,36.87,216.93,33.88,201.65,33.88z"/>
	</g>
	<g>
		<path class="st0" d="M201.67,246.01c-11.99,0-23.99-2.34-35.42-7.03c-47.55-19.52-70.34-74.09-50.83-121.64
			c0.01,0,0.01-0.01,0.01-0.01c19.52-47.55,74.1-70.34,121.64-50.82c23.03,9.45,41.01,27.32,50.61,50.29
			c9.6,22.97,9.69,48.31,0.23,71.35c-9.46,23.03-27.33,41-50.3,50.6C226.03,243.59,213.85,246.01,201.67,246.01z M130.86,123.67
			c-16.03,39.05,2.69,83.85,41.74,99.87c18.9,7.77,39.7,7.71,58.58-0.18c18.86-7.88,33.53-22.63,41.29-41.55
			c7.77-18.91,7.71-39.71-0.18-58.58c-7.89-18.86-22.64-33.53-41.56-41.3c-18.91-7.75-39.71-7.7-58.58,0.18
			C153.29,90,138.62,104.76,130.86,123.67L130.86,123.67z"/>
	</g>
	<g>
		<g>
			<path class="st0" d="M36.18,95.67C16.05,95.67,0.18,75.01,0,48.51L0.44,0.59l16.68,0.15l-0.44,47.79
				C16.79,65.06,25.81,79.25,36.26,79c6.24-0.04,10.66-5.04,12.74-8.01c4.14-5.92,6.48-14.25,6.43-22.84L55.5,0l16.68,0.03
				L72.11,48.1c0.08,12.08-3.27,23.63-9.44,32.45c-6.68,9.55-16.27,15.07-26.3,15.13C36.31,95.67,36.24,95.67,36.18,95.67z"/>
		</g>
		<g>
			
				<rect x="20.43" y="0.48" transform="matrix(1 -2.027622e-03 2.027622e-03 1 -0.051 0.0545)" class="st0" width="12.83" height="49.44"/>
		</g>
		<g>
			
				<rect x="37.64" y="0.31" transform="matrix(1 -2.154621e-03 2.154621e-03 1 -0.0538 0.095)" class="st0" width="12.83" height="49.43"/>
		</g>
	</g>
	<g>
		<g>
			<path class="st0" d="M376.24,148.95c-1.94,0-3.86-0.68-5.39-1.97l-14.05-11.88c-0.56-0.48-1.08-1.04-1.49-1.65
				c-7.78-11.37-12.43-20.72-14.72-37.55l-1.29-44.02c4.85-41.42,39.23-49.67,40.7-50c2.47-0.56,5.01,0.01,6.98,1.56
				c1.97,1.54,3.15,3.89,3.2,6.4l1.7,81.35c0.01,0.23,0,0.45-0.01,0.67c0.31,17.5-2.28,34.78-7.69,51.35
				c-0.86,2.64-2.98,4.68-5.65,5.44C377.77,148.85,377.01,148.95,376.24,148.95z M368.45,123.1l3.25,2.74
				c2.57-11.2,3.73-22.68,3.5-34.27c-0.01-0.22,0-0.44,0.01-0.66l-1.44-68.23c-7.15,4.62-15.89,13.53-17.84,29.94l1.28,41.91
				C358.92,106.93,362.25,113.9,368.45,123.1z"/>
		</g>
	</g>
	<g>
		<rect x="29.43" y="87.39" class="st0" width="16.68" height="202.54"/>
	</g>
	<g>
		<rect x="367.9" y="140.61" class="st0" width="16.69" height="149.32"/>
	</g>
</g>
</svg>