<?xml version="1.0" encoding="UTF-8" standalone="no"?>
<svg
   xmlns:dc="http://purl.org/dc/elements/1.1/"
   xmlns:cc="http://creativecommons.org/ns#"
   xmlns:rdf="http://www.w3.org/1999/02/22-rdf-syntax-ns#"
   xmlns:svg="http://www.w3.org/2000/svg"
   xmlns="http://www.w3.org/2000/svg"
   id="svg15683"
   version="1.1"
   viewBox="0 0 3.260478 3.1462102"
   height="3.1462102mm"
   width="3.260478mm">
  <defs
     id="defs15677" />
  <metadata
     id="metadata15680">
    <rdf:RDF>
      <cc:Work
         rdf:about="">
        <dc:format>image/svg+xml</dc:format>
        <dc:type
           rdf:resource="http://purl.org/dc/dcmitype/StillImage" />
        <dc:title></dc:title>
      </cc:Work>
    </rdf:RDF>
  </metadata>
  <g
     transform="translate(-103.44715,-101.14715)"
     id="layer1">
    <path
       id="path14780"
       d="m 106.59975,102.19859 -0.18742,-0.10335 c 0.0951,-0.11024 0.14883,-0.24943 0.14883,-0.39688 0,-0.16398 -0.0634,-0.31694 -0.17914,-0.4327 l -0.11852,-0.11851 -0.23564,0.23702 0.11851,0.11714 c 0.0524,0.0524 0.0813,0.12264 0.0813,0.19705 0,0.0744 -0.0289,0.1447 -0.0813,0.19707 l -0.0345,0.0345 -0.25769,-0.14331 c -0.27148,-0.14883 -0.34176,0.1378 -0.34176,0.1378 -0.0124,0.0345 -0.0262,0.0689 -0.0413,0.10335 -0.0482,0.11714 -0.10335,0.23289 -0.16674,0.34451 -0.12403,0.226 -0.27699,0.44098 -0.45475,0.64079 -0.17777,0.19982 -0.38034,0.38172 -0.60496,0.54433 -0.22876,0.15847 -0.49058,0.32108 -0.73312,0.48231 0,0 -0.10335,0.0772 -0.0482,0.18741 0.0551,0.11024 0.15572,0.0496 0.15572,0.0496 0.28801,-0.0827 0.56224,-0.15158 0.86127,-0.24529 0.29766,-0.0978 0.5898,-0.23013 0.86817,-0.3955 0.27836,-0.16536 0.54294,-0.36242 0.7841,-0.59117 0.12264,-0.11438 0.2384,-0.23703 0.34726,-0.36519 0.0565,-0.0634 0.10749,-0.13504 0.16124,-0.19981 0.17087,-0.20119 -0.0414,-0.28112 -0.0414,-0.28112"
       style="fill:#00546e;fill-opacity:1;fill-rule:nonzero;stroke:none;stroke-width:0.35277775" />
  </g>
</svg>
