<?xml version="1.0" encoding="UTF-8" standalone="no"?>
<svg
   xmlns:dc="http://purl.org/dc/elements/1.1/"
   xmlns:cc="http://creativecommons.org/ns#"
   xmlns:rdf="http://www.w3.org/1999/02/22-rdf-syntax-ns#"
   xmlns:svg="http://www.w3.org/2000/svg"
   xmlns="http://www.w3.org/2000/svg"
   id="svg15159"
   version="1.1"
   viewBox="0 0 9.7320337 9.7313156"
   height="9.7313156mm"
   width="9.7320337mm">
  <defs
     id="defs15153" />
  <metadata
     id="metadata15156">
    <rdf:RDF>
      <cc:Work
         rdf:about="">
        <dc:format>image/svg+xml</dc:format>
        <dc:type
           rdf:resource="http://purl.org/dc/dcmitype/StillImage" />
        <dc:title></dc:title>
      </cc:Work>
    </rdf:RDF>
  </metadata>
  <g
     transform="translate(-87.360169,-71.396257)"
     id="layer1">
    <path
       id="path786"
       d="m 91.456417,75.623656 c -0.125401,-0.326595 -0.115755,-0.675239 -0.05926,-1.021126 0.04272,-0.253559 -0.11989,-0.494716 -0.372071,-0.545703 l -0.833713,-0.169499"
       style="fill:none;stroke:#00546e;stroke-width:0.7055555;stroke-linecap:butt;stroke-linejoin:miter;stroke-miterlimit:10;stroke-opacity:1" />
    <path
       id="path788"
       d="m 92.864772,77.032011 c 0.326595,0.125401 0.675239,0.115755 1.021126,0.05788 0.253559,-0.04134 0.494716,0.121267 0.545704,0.373448 L 94.6011,78.29705"
       style="fill:none;stroke:#00546e;stroke-width:0.7055555;stroke-linecap:butt;stroke-linejoin:miter;stroke-miterlimit:10;stroke-opacity:1" />
    <path
       id="path790"
       d="m 94.288286,77.208399 c 0.37896,-0.09233 0.741384,-0.275607 1.047309,-0.551215 0.0689,-0.06063 0.132291,-0.125402 0.192925,-0.191548 0.151584,-0.169498 0.429948,-0.332107 0.651812,-0.285254 l 0.05236,0.01103 c 0.326596,0.0689 0.54846,0.377583 0.500228,0.706934 -0.136425,0.93431 -0.563617,1.832791 -1.281575,2.550749 -1.759755,1.759754 -4.60816,1.770779 -6.381695,0.03032 l -0.06201,-0.06063 c -1.739084,-1.773535 -1.729437,-4.62194 0.03169,-6.381695 0.717958,-0.717957 1.616439,-1.145149 2.549371,-1.281575 0.330729,-0.04823 0.639409,0.173633 0.708311,0.500228 l 0.01102,0.05236 c 0.04685,0.221864 -0.115755,0.500228 -0.285254,0.651812 -0.06615,0.06063 -0.129535,0.124024 -0.191547,0.192926 -0.275607,0.305924 -0.458887,0.66697 -0.551215,1.047309"
       style="fill:none;stroke:#00546e;stroke-width:0.7055555;stroke-linecap:butt;stroke-linejoin:miter;stroke-miterlimit:10;stroke-opacity:1" />
    <path
       id="path792"
       d="m 91.62867,78.902008 1.309136,-1.915473 c 0.162609,-0.239779 0.13367,-0.560862 -0.07166,-0.76619 l -0.299035,-0.297656 -0.0014,-0.0028 -0.297656,-0.297656 C 92.062756,75.41695 91.741673,75.388011 91.501894,75.55062 l -2.009179,1.372526"
       style="fill:none;stroke:#00546e;stroke-width:0.7055555;stroke-linecap:butt;stroke-linejoin:miter;stroke-miterlimit:10;stroke-opacity:1" />
  </g>
</svg>
