<?xml version="1.0" encoding="UTF-8" standalone="no"?>
<svg
   xmlns:dc="http://purl.org/dc/elements/1.1/"
   xmlns:cc="http://creativecommons.org/ns#"
   xmlns:rdf="http://www.w3.org/1999/02/22-rdf-syntax-ns#"
   xmlns:svg="http://www.w3.org/2000/svg"
   xmlns="http://www.w3.org/2000/svg"
   id="svg15109"
   version="1.1"
   viewBox="0 0 8.330246 8.8580351"
   height="8.8580351mm"
   width="8.330246mm">
  <defs
     id="defs15103" />
  <metadata
     id="metadata15106">
    <rdf:RDF>
      <cc:Work
         rdf:about="">
        <dc:format>image/svg+xml</dc:format>
        <dc:type
           rdf:resource="http://purl.org/dc/dcmitype/StillImage" />
        <dc:title></dc:title>
      </cc:Work>
    </rdf:RDF>
  </metadata>
  <g
     transform="translate(-104.69202,-105.09479)"
     id="layer1">
    <path
       id="path794"
       d="m 105.21016,108.42276 c 0,-1.64262 1.65089,-2.97519 3.68763,-2.97519 2.03674,0 3.68763,1.33257 3.68763,2.97519"
       style="fill:none;stroke:#00546e;stroke-width:0.7055555;stroke-linecap:butt;stroke-linejoin:miter;stroke-miterlimit:10;stroke-opacity:1" />
    <path
       id="path796"
       d="m 105.21016,111.51232 h 7.37526"
       style="fill:none;stroke:#00546e;stroke-width:0.7055555;stroke-linecap:butt;stroke-linejoin:miter;stroke-miterlimit:10;stroke-opacity:1" />
    <path
       id="path798"
       d="m 112.66948,109.54172 c 0,0.36794 -0.34175,0.6656 -0.76205,0.6656 -0.42168,0 -0.76343,-0.29766 -0.76343,-0.6656 0,-0.36655 -0.34038,-0.66421 -0.76206,-0.66421 -0.42168,0 -0.76205,0.29766 -0.76205,0.66421 0,0.36794 -0.34176,0.6656 -0.76206,0.6656 -0.42168,0 -0.76343,-0.29766 -0.76343,-0.6656 0,-0.36655 -0.34038,-0.66421 -0.76206,-0.66421 -0.4203,0 -0.76205,0.29766 -0.76205,0.66421 0,0.36794 -0.34176,0.6656 -0.76206,0.6656 -0.42168,0 -0.76343,-0.29766 -0.76343,-0.6656"
       style="fill:none;stroke:#00546e;stroke-width:0.7055555;stroke-linecap:butt;stroke-linejoin:miter;stroke-miterlimit:10;stroke-opacity:1" />
    <path
       id="path800"
       d="m 105.0448,112.6492 c 0,0.52503 0.42581,0.95085 0.95223,0.95085 h 5.72023 c 0.52641,0 0.95223,-0.42582 0.95223,-0.95085"
       style="fill:none;stroke:#00546e;stroke-width:0.7055555;stroke-linecap:butt;stroke-linejoin:miter;stroke-miterlimit:10;stroke-opacity:1" />
  </g>
</svg>
