<?xml version="1.0" encoding="UTF-8" standalone="no"?>
<svg
   xmlns:dc="http://purl.org/dc/elements/1.1/"
   xmlns:cc="http://creativecommons.org/ns#"
   xmlns:rdf="http://www.w3.org/1999/02/22-rdf-syntax-ns#"
   xmlns:svg="http://www.w3.org/2000/svg"
   xmlns="http://www.w3.org/2000/svg"
   xmlns:sodipodi="http://sodipodi.sourceforge.net/DTD/sodipodi-0.dtd"
   xmlns:inkscape="http://www.inkscape.org/namespaces/inkscape"
   id="svg1242"
   version="1.1"
   viewBox="0 0 7.6202644 12.699829"
   height="12.699828mm"
   width="7.6202645mm"
   sodipodi:docname="letter_w.svg"
   inkscape:version="0.92.5 (2060ec1f9f, 2020-04-08)">
  <sodipodi:namedview
     pagecolor="#ffffff"
     bordercolor="#666666"
     borderopacity="1"
     objecttolerance="10"
     gridtolerance="10"
     guidetolerance="10"
     inkscape:pageopacity="0"
     inkscape:pageshadow="2"
     inkscape:window-width="1055"
     inkscape:window-height="634"
     id="namedview7"
     showgrid="false"
     fit-margin-top="0"
     fit-margin-left="0"
     fit-margin-right="0"
     fit-margin-bottom="0"
     inkscape:zoom="1.6651463"
     inkscape:cx="-94.598929"
     inkscape:cy="23.999675"
     inkscape:window-x="4334"
     inkscape:window-y="277"
     inkscape:window-maximized="0"
     inkscape:current-layer="svg1242" />
  <defs
     id="defs1236" />
  <metadata
     id="metadata1239">
    <rdf:RDF>
      <cc:Work
         rdf:about="">
        <dc:format>image/svg+xml</dc:format>
        <dc:type
           rdf:resource="http://purl.org/dc/dcmitype/StillImage" />
        <dc:title></dc:title>
      </cc:Work>
    </rdf:RDF>
  </metadata>
  <g
     transform="matrix(0.33866925,0,0,0.33866925,-34.336524,-20.245701)"
     id="layer1"
     style="fill:#37545c;fill-opacity:1">
    <path
       id="path4"
       d="m 105.18172,93.529723 c 0,0.932931 -0.67937,1.704634 -1.56959,1.850705 -0.17914,0.02893 -0.30454,0.190172 -0.30454,0.370692 v 1.040418 c 0,0.322464 0.16812,0.487828 0.37482,0.487828 h 5.25033 c 0.39963,-0.453377 2.7354,-5.67614 3.50297,-7.131349 0.0951,-0.180525 0.35278,-0.180525 0.44786,0 0.76757,1.455209 3.10335,6.677972 3.50298,7.131349 h 5.25032 c 0.20671,0 0.37483,-0.166743 0.37483,-0.374827 v -1.150662 c 0,-0.181901 -0.1254,-0.344512 -0.30455,-0.373449 -0.89021,-0.146071 -1.57096,-0.917774 -1.57096,-1.850705 l 1.87551,-29.99989 c 0,-0.931556 0.67937,-1.704633 1.57096,-1.849328 0.17777,-0.0303 0.30455,-0.191548 0.30455,-0.372072 v -1.039039 c 0,-0.32246 -0.16812,-0.489204 -0.37621,-0.489204 h -5.24894 l -1.87551,27.818456 c 0,0.234267 -0.29215,0.343133 -0.44511,0.163986 -0.9977,-1.175467 -2.48047,-4.001823 -3.03719,-5.09185 -0.0937,-0.181903 -0.35278,-0.183279 -0.44787,-0.0014 -0.56637,1.090019 -2.07395,3.920508 -3.07991,5.095978 -0.15297,0.179144 -0.44373,0.07028 -0.44373,-0.165365 l -1.92099,-27.819837 h -5.25032 c -0.20671,0 -0.37483,0.16812 -0.37483,0.374826 v 1.152042 c 0,0.18052 0.1254,0.343129 0.30455,0.373447 0.89021,0.144695 1.57096,0.917772 1.57096,1.849328 z m 0,0"
       style="fill:#37545c;fill-opacity:1;fill-rule:nonzero;stroke:none;stroke-width:0.35277775"
       inkscape:connector-curvature="0" />
  </g>
</svg>
