<?xml version="1.0" encoding="UTF-8" standalone="no"?>
<svg
   xmlns:dc="http://purl.org/dc/elements/1.1/"
   xmlns:cc="http://creativecommons.org/ns#"
   xmlns:rdf="http://www.w3.org/1999/02/22-rdf-syntax-ns#"
   xmlns:svg="http://www.w3.org/2000/svg"
   xmlns="http://www.w3.org/2000/svg"
   xmlns:sodipodi="http://sodipodi.sourceforge.net/DTD/sodipodi-0.dtd"
   xmlns:inkscape="http://www.inkscape.org/namespaces/inkscape"
   id="svg703"
   version="1.1"
   viewBox="0 0 5.08 12.700235"
   height="12.700234mm"
   width="5.0799999mm"
   sodipodi:docname="letter_l.svg"
   inkscape:version="0.92.5 (2060ec1f9f, 2020-04-08)">
  <sodipodi:namedview
     pagecolor="#ffffff"
     bordercolor="#666666"
     borderopacity="1"
     objecttolerance="10"
     gridtolerance="10"
     guidetolerance="10"
     inkscape:pageopacity="0"
     inkscape:pageshadow="2"
     inkscape:window-width="793"
     inkscape:window-height="480"
     id="namedview7"
     showgrid="false"
     fit-margin-top="0"
     fit-margin-left="0"
     fit-margin-right="0"
     fit-margin-bottom="0"
     inkscape:zoom="2.354788"
     inkscape:cx="13.514099"
     inkscape:cy="26.100516"
     inkscape:window-x="4575"
     inkscape:window-y="221"
     inkscape:window-maximized="0"
     inkscape:current-layer="svg703" />
  <defs
     id="defs697" />
  <metadata
     id="metadata700">
    <rdf:RDF>
      <cc:Work
         rdf:about="">
        <dc:format>image/svg+xml</dc:format>
        <dc:type
           rdf:resource="http://purl.org/dc/dcmitype/StillImage" />
        <dc:title></dc:title>
      </cc:Work>
    </rdf:RDF>
  </metadata>
  <g
     transform="matrix(0.33866791,0,0,0.33866791,-30.742185,-22.293528)"
     id="layer1"
     style="fill:#37545c;fill-opacity:1">
    <path
       id="path32"
       d="m 105.39896,97.702507 h -1.15204 c -0.18053,0 -0.34314,0.125402 -0.37208,0.304546 -0.14607,0.890212 -0.91915,1.570961 -1.8507,1.570961 h -5.250324 c -0.206707,0 -0.374827,-0.168119 -0.374827,-0.376203 V 66.201932 c 0,-0.206707 -0.168123,-0.374827 -0.374826,-0.374827 h -2.99999 c -0.206707,0 -0.374827,0.16812 -0.374827,0.374827 v 31.500575 c 0,0.93155 -0.680751,1.704631 -1.570961,1.850702 -0.179148,0.02893 -0.30455,0.191548 -0.30455,0.372073 v 3.027548 c 0,0.20671 0.168123,0.37483 0.374827,0.37483 h 14.625118 v -5.250328 c 0,-0.206706 -0.16812,-0.374825 -0.37482,-0.374825"
       style="fill:#37545c;fill-opacity:1;fill-rule:nonzero;stroke:none;stroke-width:0.35277775"
       inkscape:connector-curvature="0" />
  </g>
</svg>
