<?xml version="1.0" encoding="UTF-8" standalone="no"?>
<svg
   xmlns:dc="http://purl.org/dc/elements/1.1/"
   xmlns:cc="http://creativecommons.org/ns#"
   xmlns:rdf="http://www.w3.org/1999/02/22-rdf-syntax-ns#"
   xmlns:svg="http://www.w3.org/2000/svg"
   xmlns="http://www.w3.org/2000/svg"
   xmlns:sodipodi="http://sodipodi.sourceforge.net/DTD/sodipodi-0.dtd"
   xmlns:inkscape="http://www.inkscape.org/namespaces/inkscape"
   id="svg391"
   version="1.1"
   viewBox="0 0 6.3497352 12.699938"
   height="12.699938mm"
   width="6.3497353mm"
   sodipodi:docname="letter_f.svg"
   inkscape:version="0.92.5 (2060ec1f9f, 2020-04-08)">
  <sodipodi:namedview
     pagecolor="#ffffff"
     bordercolor="#666666"
     borderopacity="1"
     objecttolerance="10"
     gridtolerance="10"
     guidetolerance="10"
     inkscape:pageopacity="0"
     inkscape:pageshadow="2"
     inkscape:window-width="957"
     inkscape:window-height="582"
     id="namedview7"
     showgrid="false"
     fit-margin-top="0"
     fit-margin-left="0"
     fit-margin-right="0"
     fit-margin-bottom="0"
     inkscape:zoom="1.6650866"
     inkscape:cx="-97.00384"
     inkscape:cy="23.999882"
     inkscape:window-x="4497"
     inkscape:window-y="191"
     inkscape:window-maximized="0"
     inkscape:current-layer="svg391" />
  <defs
     id="defs385" />
  <metadata
     id="metadata388">
    <rdf:RDF>
      <cc:Work
         rdf:about="">
        <dc:format>image/svg+xml</dc:format>
        <dc:type
           rdf:resource="http://purl.org/dc/dcmitype/StillImage" />
        <dc:title></dc:title>
      </cc:Work>
    </rdf:RDF>
  </metadata>
  <g
     transform="matrix(0.33866,0,0,0.33866,-32.92266,-30.997376)"
     id="layer1"
     style="fill:#37545c;fill-opacity:1">
    <path
       id="path28-3"
       d="m 115.96408,105.00256 c 0,-0.18052 -0.1254,-0.34313 -0.30317,-0.37207 -0.89159,-0.14607 -1.57096,-0.91915 -1.57096,-1.8507 v -3.749642 c 0,-4.142384 -3.35828,-7.500662 -7.50066,-7.500662 -4.14239,0 -7.499289,3.358278 -7.499289,7.500662 v 24.374742 c 0,0.93155 -0.680748,1.70463 -1.570962,1.8507 -0.179144,0.0289 -0.304546,0.19155 -0.304546,0.37207 v 3.02755 c 0,0.20671 0.16812,0.37483 0.374827,0.37483 h 6.74963 c 0.20808,0 0.37483,-0.16812 0.37483,-0.37483 v -3.02755 c 0,-0.18052 -0.12541,-0.34313 -0.30317,-0.37207 -0.89159,-0.14607 -1.57097,-0.91915 -1.57097,-1.8507 v -7.50067 h 5.62516 v -3.74964 h -5.62516 V 99.030148 c 0,-2.071194 1.67845,-3.749643 3.74965,-3.749643 2.07119,0 3.74964,1.678449 3.74964,3.749643 v 3.749642 c 0,0.93155 -0.67938,1.70463 -1.56959,1.8507 -0.17914,0.0289 -0.30454,0.19155 -0.30454,0.37207 v 1.15204 c 0,0.20671 0.16812,0.37483 0.37482,0.37483 h 6.74963 c 0.20671,0 0.37483,-0.16812 0.37483,-0.37483 z m 0,0"
       style="fill:#37545c;fill-opacity:1;fill-rule:nonzero;stroke:none;stroke-width:0.35277775"
       inkscape:connector-curvature="0" />
  </g>
</svg>
