<?xml version="1.0" encoding="UTF-8" standalone="no"?>
<svg
   xmlns:dc="http://purl.org/dc/elements/1.1/"
   xmlns:cc="http://creativecommons.org/ns#"
   xmlns:rdf="http://www.w3.org/1999/02/22-rdf-syntax-ns#"
   xmlns:svg="http://www.w3.org/2000/svg"
   xmlns="http://www.w3.org/2000/svg"
   xmlns:sodipodi="http://sodipodi.sourceforge.net/DTD/sodipodi-0.dtd"
   xmlns:inkscape="http://www.inkscape.org/namespaces/inkscape"
   id="svg602"
   version="1.1"
   viewBox="0 0 5.7150002 12.699847"
   height="12.699847mm"
   width="5.7150002mm"
   sodipodi:docname="letter_j.svg"
   inkscape:version="0.92.5 (2060ec1f9f, 2020-04-08)">
  <sodipodi:namedview
     pagecolor="#ffffff"
     bordercolor="#666666"
     borderopacity="1"
     objecttolerance="10"
     gridtolerance="10"
     guidetolerance="10"
     inkscape:pageopacity="0"
     inkscape:pageshadow="2"
     inkscape:window-width="1920"
     inkscape:window-height="1015"
     id="namedview7"
     showgrid="false"
     inkscape:zoom="1.6650866"
     inkscape:cx="-207.20668"
     inkscape:cy="23.999716"
     inkscape:window-x="3840"
     inkscape:window-y="0"
     inkscape:window-maximized="1"
     inkscape:current-layer="svg602"
     fit-margin-top="0"
     fit-margin-left="0"
     fit-margin-right="0"
     fit-margin-bottom="0" />
  <defs
     id="defs596" />
  <metadata
     id="metadata599">
    <rdf:RDF>
      <cc:Work
         rdf:about="">
        <dc:format>image/svg+xml</dc:format>
        <dc:type
           rdf:resource="http://purl.org/dc/dcmitype/StillImage" />
        <dc:title />
      </cc:Work>
    </rdf:RDF>
  </metadata>
  <g
     transform="matrix(0.3386576,0,0,0.3386576,-26.327528,-32.277201)"
     id="layer1"
     style="fill:#37545c;fill-opacity:1">
    <path
       id="path52"
       d="m 78.115675,119.68399 h 4.875498 c 0.206707,0 0.374827,0.16812 0.374827,0.3762 v 1.15066 c 0,0.1819 -0.125402,0.34451 -0.304546,0.37345 -0.890214,0.14607 -1.569586,0.91777 -1.569586,1.85071 v 1.87413 c 0,2.07119 1.678449,3.75102 3.749639,3.75102 2.071194,0 3.749643,-1.67983 3.749643,-3.74964 V 100.9344 c 0,-0.93155 -0.679372,-1.704634 -1.570961,-1.850705 -0.177768,-0.02893 -0.30317,-0.191548 -0.30317,-0.372071 v -3.02755 c 0,-0.04548 0.0083,-0.08957 0.0248,-0.130915 0.05237,-0.141937 0.188794,-0.243911 0.350024,-0.243911 h 6.749629 c 0.206707,0 0.374826,0.16812 0.374826,0.374826 v 3.02755 c 0,0.180523 -0.125401,0.343133 -0.304546,0.372071 -0.890213,0.146071 -1.570961,0.919155 -1.570961,1.850705 v 24.37474 c 0,3.48643 -2.377116,6.41614 -5.598971,7.25675 -0.607712,0.15847 -1.244367,0.24391 -1.900315,0.24391 -4.14238,0 -7.500659,-3.35828 -7.500659,-7.50066 v -5.24895 c 0,-0.20808 0.16812,-0.3762 0.374827,-0.3762"
       style="fill:#37545c;fill-opacity:1;fill-rule:nonzero;stroke:none;stroke-width:0.35277775"
       inkscape:connector-curvature="0" />
  </g>
</svg>
