<?xml version="1.0" encoding="UTF-8" standalone="no"?>
<svg
   xmlns:dc="http://purl.org/dc/elements/1.1/"
   xmlns:cc="http://creativecommons.org/ns#"
   xmlns:rdf="http://www.w3.org/1999/02/22-rdf-syntax-ns#"
   xmlns:svg="http://www.w3.org/2000/svg"
   xmlns="http://www.w3.org/2000/svg"
   xmlns:sodipodi="http://sodipodi.sourceforge.net/DTD/sodipodi-0.dtd"
   xmlns:inkscape="http://www.inkscape.org/namespaces/inkscape"
   id="svg553"
   version="1.1"
   viewBox="0 0 2.5402646 27.21467"
   height="12.700392mm"
   width="2.5402646mm"
   sodipodi:docname="letter_i.svg"
   inkscape:version="0.92.5 (2060ec1f9f, 2020-04-08)">
  <sodipodi:namedview
     pagecolor="#ffffff"
     bordercolor="#666666"
     borderopacity="1"
     objecttolerance="10"
     gridtolerance="10"
     guidetolerance="10"
     inkscape:pageopacity="0"
     inkscape:pageshadow="2"
     inkscape:window-width="793"
     inkscape:window-height="480"
     id="namedview7"
     showgrid="false"
     fit-margin-top="0"
     fit-margin-left="0"
     fit-margin-right="0"
     fit-margin-bottom="0"
     inkscape:zoom="2.5229452"
     inkscape:cx="-30.828453"
     inkscape:cy="1.4048009"
     inkscape:window-x="4491"
     inkscape:window-y="301"
     inkscape:window-maximized="0"
     inkscape:current-layer="svg553" />
  <defs
     id="defs547" />
  <metadata
     id="metadata550">
    <rdf:RDF>
      <cc:Work
         rdf:about="">
        <dc:format>image/svg+xml</dc:format>
        <dc:type
           rdf:resource="http://purl.org/dc/dcmitype/StillImage" />
        <dc:title></dc:title>
      </cc:Work>
    </rdf:RDF>
  </metadata>
  <g
     transform="matrix(0.72571386,0,0,0.72571386,-75.897138,-83.430975)"
     id="layer1"
     style="fill:#37545c;fill-opacity:1">
    <path
       id="path44"
       d="m 109.27909,148.69011 c -0.8916,-0.14607 -1.57097,-0.91915 -1.57097,-1.8507 v -26.25025 c 0,-0.93155 0.67937,-1.70463 1.57097,-1.8507 0.17776,-0.0289 0.30316,-0.19155 0.30316,-0.37207 l 0.001,-3.02618 c 10e-6,-0.20808 -0.16811,-0.3762 -0.37619,-0.3762 h -6.74963 c -0.20671,0 -0.37483,0.16812 -0.37483,0.3762 v 3.02618 c 0,0.18052 0.1254,0.34313 0.30455,0.37207 0.89021,0.14607 1.57096,0.91915 1.57096,1.8507 v 26.25025 c 0,0.93155 -0.68075,1.70463 -1.57096,1.8507 -0.17915,0.0289 -0.30455,0.19155 -0.30455,0.37208 v 3.02754 c 0,0.20671 0.16812,0.37483 0.37483,0.37483 h 6.74963 c 0.20808,0 0.3762,-0.16812 0.3762,-0.37483 l -10e-4,-3.02754 c 0,-0.18053 -0.1254,-0.34314 -0.30316,-0.37208"
       style="fill:#37545c;fill-opacity:1;fill-rule:nonzero;stroke:none;stroke-width:0.35277775"
       inkscape:connector-curvature="0" />
  </g>
</svg>
