<?xml version="1.0" encoding="UTF-8" standalone="no"?>
<svg
   xmlns:dc="http://purl.org/dc/elements/1.1/"
   xmlns:cc="http://creativecommons.org/ns#"
   xmlns:rdf="http://www.w3.org/1999/02/22-rdf-syntax-ns#"
   xmlns:svg="http://www.w3.org/2000/svg"
   xmlns="http://www.w3.org/2000/svg"
   xmlns:sodipodi="http://sodipodi.sourceforge.net/DTD/sodipodi-0.dtd"
   xmlns:inkscape="http://www.inkscape.org/namespaces/inkscape"
   id="svg1095"
   version="1.1"
   viewBox="0 0 5.0799998 12.699761"
   height="12.69976mm"
   width="5.0799999mm"
   sodipodi:docname="letter_t.svg"
   inkscape:version="0.92.5 (2060ec1f9f, 2020-04-08)">
  <sodipodi:namedview
     pagecolor="#ffffff"
     bordercolor="#666666"
     borderopacity="1"
     objecttolerance="10"
     gridtolerance="10"
     guidetolerance="10"
     inkscape:pageopacity="0"
     inkscape:pageshadow="2"
     inkscape:window-width="1133"
     inkscape:window-height="627"
     id="namedview7"
     showgrid="false"
     fit-margin-top="0"
     fit-margin-left="0"
     fit-margin-right="0"
     fit-margin-bottom="0"
     inkscape:zoom="1.6651475"
     inkscape:cx="-99.399351"
     inkscape:cy="23.999549"
     inkscape:window-x="4215"
     inkscape:window-y="182"
     inkscape:window-maximized="0"
     inkscape:current-layer="svg1095" />
  <defs
     id="defs1089" />
  <metadata
     id="metadata1092">
    <rdf:RDF>
      <cc:Work
         rdf:about="">
        <dc:format>image/svg+xml</dc:format>
        <dc:type
           rdf:resource="http://purl.org/dc/dcmitype/StillImage" />
        <dc:title></dc:title>
      </cc:Work>
    </rdf:RDF>
  </metadata>
  <g
     transform="matrix(0.33866769,0,0,0.33866769,-25.109799,-28.438146)"
     id="layer1"
     style="fill:#37545c;fill-opacity:1">
    <path
       id="path50"
       d="M 85.393184,83.97065 H 74.506685 c -0.201197,0 -0.363803,0.162609 -0.363803,0.363802 v 4.886522 c 0,0.206707 0.16812,0.374827 0.374827,0.374827 h 1.152038 c 0.180523,0 0.344509,-0.126778 0.373451,-0.304546 0.144691,-0.890214 0.917772,-1.570962 1.849324,-1.570962 h 0.224621 c 0.0248,0.01101 0.05099,0.02067 0.07993,0.0248 0.891593,0.146071 1.570965,0.917772 1.570965,1.850704 v 26.250253 c 0,0.93155 -0.679372,1.70463 -1.570965,1.84933 -0.177765,0.0303 -0.304546,0.19292 -0.304546,0.37345 v 3.02617 c 0,0.20808 0.168123,0.37483 0.374826,0.37483 h 6.75101 c 0.206707,0 0.374826,-0.16675 0.374826,-0.37483 v -3.02617 c 0,-0.18053 -0.126777,-0.34314 -0.304546,-0.37345 -0.891589,-0.1447 -1.570962,-0.91778 -1.570962,-1.84933 V 89.595801 c 0,-0.932931 0.679373,-1.704633 1.570962,-1.850704 0.02893,-0.0041 0.05512,-0.01379 0.07993,-0.0248 h 0.22462 c 0.931556,0 1.704633,0.680748 1.850708,1.570962 0.02893,0.177768 0.191544,0.304546 0.372068,0.304546 h 1.152041 c 0.206707,0 0.374827,-0.16812 0.374827,-0.374827 v -4.886523 c 0,-0.201193 -0.16261,-0.363803 -0.363802,-0.363803 z m 0,0"
       style="fill:#37545c;fill-opacity:1;fill-rule:nonzero;stroke:none;stroke-width:0.35277775"
       inkscape:connector-curvature="0" />
  </g>
</svg>
