<?xml version="1.0" encoding="UTF-8" standalone="no"?>
<svg
   xmlns:dc="http://purl.org/dc/elements/1.1/"
   xmlns:cc="http://creativecommons.org/ns#"
   xmlns:rdf="http://www.w3.org/1999/02/22-rdf-syntax-ns#"
   xmlns:svg="http://www.w3.org/2000/svg"
   xmlns="http://www.w3.org/2000/svg"
   xmlns:sodipodi="http://sodipodi.sourceforge.net/DTD/sodipodi-0.dtd"
   xmlns:inkscape="http://www.inkscape.org/namespaces/inkscape"
   id="svg244"
   version="1.1"
   viewBox="0 0 5.0799999 12.700239"
   height="12.700239mm"
   width="5.0799999mm"
   sodipodi:docname="letter_c.svg"
   inkscape:version="0.92.5 (2060ec1f9f, 2020-04-08)">
  <sodipodi:namedview
     pagecolor="#ffffff"
     bordercolor="#666666"
     borderopacity="1"
     objecttolerance="10"
     gridtolerance="10"
     guidetolerance="10"
     inkscape:pageopacity="0"
     inkscape:pageshadow="2"
     inkscape:window-width="1920"
     inkscape:window-height="1015"
     id="namedview7"
     showgrid="false"
     fit-margin-top="0"
     fit-margin-left="0"
     fit-margin-right="0"
     fit-margin-bottom="0"
     inkscape:zoom="1.6650864"
     inkscape:cx="-99.403356"
     inkscape:cy="24.000451"
     inkscape:window-x="3840"
     inkscape:window-y="0"
     inkscape:window-maximized="1"
     inkscape:current-layer="svg244" />
  <defs
     id="defs238" />
  <metadata
     id="metadata241">
    <rdf:RDF>
      <cc:Work
         rdf:about="">
        <dc:format>image/svg+xml</dc:format>
        <dc:type
           rdf:resource="http://purl.org/dc/dcmitype/StillImage" />
        <dc:title />
      </cc:Work>
    </rdf:RDF>
  </metadata>
  <g
     transform="matrix(0.33866801,0,0,0.33866801,-44.823124,-30.742092)"
     id="layer1"
     style="fill:#37545c;fill-opacity:1">
    <path
       id="path12"
       d="m 139.85188,90.773534 c -4.14238,0 -7.50066,3.358278 -7.50066,7.500662 v 22.499224 c 0,4.14239 3.35828,7.50067 7.50066,7.50067 4.14238,0 7.49928,-3.35828 7.49928,-7.50067 v -5.24895 c 0,-0.20808 -0.16674,-0.37482 -0.37482,-0.37482 h -4.87412 c -0.20809,0 -0.37621,0.16674 -0.37621,0.37482 v 1.15205 c 0,0.18052 0.12678,0.34313 0.30455,0.37207 0.89159,0.14469 1.57096,0.91915 1.57096,1.8507 v 1.87413 c 0,2.07119 -1.67845,3.75102 -3.74964,3.75102 -2.07119,0 -3.74964,-1.67983 -3.74964,-3.75102 V 98.274196 c 0,-2.071194 1.67845,-3.749643 3.74964,-3.749643 2.07119,0 3.74964,1.678449 3.74964,3.749643 v 1.874134 c 0,0.93293 -0.67937,1.70601 -1.57096,1.8507 -0.17777,0.0289 -0.30455,0.19155 -0.30455,0.37345 v 1.15204 c 0,0.20671 0.16812,0.37483 0.37621,0.37483 h 4.87412 c 0.20808,0 0.37482,-0.16812 0.37482,-0.37483 v -5.250324 c 0,-4.142384 -3.3569,-7.500662 -7.49928,-7.500662"
       style="fill:#37545c;fill-opacity:1;fill-rule:nonzero;stroke:none;stroke-width:0.35277775"
       inkscape:connector-curvature="0" />
  </g>
</svg>
