<?xml version="1.0" encoding="UTF-8" standalone="no"?>
<svg
   xmlns:dc="http://purl.org/dc/elements/1.1/"
   xmlns:cc="http://creativecommons.org/ns#"
   xmlns:rdf="http://www.w3.org/1999/02/22-rdf-syntax-ns#"
   xmlns:svg="http://www.w3.org/2000/svg"
   xmlns="http://www.w3.org/2000/svg"
   xmlns:sodipodi="http://sodipodi.sourceforge.net/DTD/sodipodi-0.dtd"
   xmlns:inkscape="http://www.inkscape.org/namespaces/inkscape"
   id="svg997"
   version="1.1"
   viewBox="0 0 5.7152648 12.699967"
   height="12.699967mm"
   width="5.7152648mm"
   sodipodi:docname="letter_r.svg"
   inkscape:version="0.92.5 (2060ec1f9f, 2020-04-08)">
  <sodipodi:namedview
     pagecolor="#ffffff"
     bordercolor="#666666"
     borderopacity="1"
     objecttolerance="10"
     gridtolerance="10"
     guidetolerance="10"
     inkscape:pageopacity="0"
     inkscape:pageshadow="2"
     inkscape:window-width="793"
     inkscape:window-height="480"
     id="namedview7"
     showgrid="false"
     fit-margin-top="0"
     fit-margin-left="0"
     fit-margin-right="0"
     fit-margin-bottom="0"
     inkscape:zoom="0.83257375"
     inkscape:cx="-110.32287"
     inkscape:cy="14.598816"
     inkscape:window-x="4518"
     inkscape:window-y="189"
     inkscape:window-maximized="0"
     inkscape:current-layer="svg997" />
  <defs
     id="defs991" />
  <metadata
     id="metadata994">
    <rdf:RDF>
      <cc:Work
         rdf:about="">
        <dc:format>image/svg+xml</dc:format>
        <dc:type
           rdf:resource="http://purl.org/dc/dcmitype/StillImage" />
        <dc:title></dc:title>
      </cc:Work>
    </rdf:RDF>
  </metadata>
  <g
     transform="matrix(0.33867319,0,0,0.33867319,-22.744448,-28.438608)"
     id="layer1"
     style="fill:#37545c;fill-opacity:1">
    <path
       id="path16"
       d="m 84.032966,98.970595 v -7.500662 c 0,-4.141005 -3.358283,-7.499283 -7.500662,-7.499283 -4.141004,0 -7.499286,3.358278 -7.499286,7.499283 v 24.376117 c 0,0.93155 -0.680749,1.70463 -1.570962,1.84933 -0.179144,0.0289 -0.304546,0.19292 -0.304546,0.37345 v 3.02617 c 0,0.20808 0.16812,0.37483 0.374826,0.37483 h 4.875498 c 0.206707,0 0.374827,-0.16675 0.374827,-0.37483 V 91.469933 c 0,-2.07119 1.678449,-3.74964 3.749643,-3.74964 2.07119,0 3.751018,1.67845 3.751018,3.74964 v 7.875488 c 0,2.899389 -2.350932,5.250329 -5.250324,5.250329 -0.208086,0 -0.374826,0.16812 -0.374826,0.37482 v 3.35277 c 0,1.00046 0.396875,1.95957 1.103806,2.66788 l 2.2903,2.2903 c 0.835092,0.83372 1.455208,1.84244 1.8259,2.93936 0.249425,0.73725 -0.316949,1.4993 -1.09554,1.4993 -0.206703,0 -0.374827,0.16812 -0.374827,0.37483 v 2.99999 c 0,0.20808 0.168124,0.37483 0.374827,0.37483 h 4.875501 c 0.206703,0 0.374827,-0.16675 0.374827,-0.37483 v -3.37482 c -0.221866,-2.65547 -1.415246,-5.15937 -3.314185,-7.05831 l -2.468065,-2.47082 c -0.188793,-0.18879 -0.125402,-0.50436 0.119888,-0.61047 3.330719,-1.43867 5.662362,-4.75148 5.662362,-8.609985"
       style="fill:#37545c;fill-opacity:1;fill-rule:nonzero;stroke:none;stroke-width:0.35277775"
       inkscape:connector-curvature="0" />
  </g>
</svg>
