<?xml version="1.0" encoding="UTF-8" standalone="no"?>
<svg
   xmlns:dc="http://purl.org/dc/elements/1.1/"
   xmlns:cc="http://creativecommons.org/ns#"
   xmlns:rdf="http://www.w3.org/1999/02/22-rdf-syntax-ns#"
   xmlns:svg="http://www.w3.org/2000/svg"
   xmlns="http://www.w3.org/2000/svg"
   xmlns:sodipodi="http://sodipodi.sourceforge.net/DTD/sodipodi-0.dtd"
   xmlns:inkscape="http://www.inkscape.org/namespaces/inkscape"
   id="svg293"
   version="1.1"
   viewBox="0 0 5.7150002 12.699844"
   height="12.699843mm"
   width="5.7150002mm"
   sodipodi:docname="letter_d.svg"
   inkscape:version="0.92.5 (2060ec1f9f, 2020-04-08)">
  <sodipodi:namedview
     pagecolor="#ffffff"
     bordercolor="#666666"
     borderopacity="1"
     objecttolerance="10"
     gridtolerance="10"
     guidetolerance="10"
     inkscape:pageopacity="0"
     inkscape:pageshadow="2"
     inkscape:window-width="1920"
     inkscape:window-height="1015"
     id="namedview7"
     showgrid="false"
     fit-margin-top="0"
     fit-margin-left="0"
     fit-margin-right="0"
     fit-margin-bottom="0"
     inkscape:zoom="1.6650866"
     inkscape:cx="-98.203341"
     inkscape:cy="23.999708"
     inkscape:window-x="3840"
     inkscape:window-y="0"
     inkscape:window-maximized="1"
     inkscape:current-layer="svg293" />
  <defs
     id="defs287" />
  <metadata
     id="metadata290">
    <rdf:RDF>
      <cc:Work
         rdf:about="">
        <dc:format>image/svg+xml</dc:format>
        <dc:type
           rdf:resource="http://purl.org/dc/dcmitype/StillImage" />
        <dc:title />
      </cc:Work>
    </rdf:RDF>
  </metadata>
  <g
     transform="matrix(0.33865753,0,0,0.33865753,-10.966984,-9.2363877)"
     id="layer1"
     style="fill:#37545c;fill-opacity:1">
    <path
       id="path42"
       d="m 45.509514,57.273424 c 0,2.07119 -1.679829,3.751019 -3.75102,3.751019 h -3.374816 c -0.206707,0 -0.374827,-0.168119 -0.374827,-0.376203 V 31.399379 c 0,-0.208083 0.16812,-0.374826 0.374827,-0.374826 h 3.374816 c 2.071191,0 3.75102,1.678449 3.75102,3.749643 z m 3.749643,-22.499228 c 0,-4.142384 -3.358282,-7.500662 -7.500663,-7.500662 h -8.999967 c -0.206707,0 -0.374826,0.168119 -0.374826,0.374826 v 3.027549 c 0,0.180524 0.125401,0.343133 0.304546,0.372071 0.890213,0.146072 1.570961,0.919152 1.570961,1.850704 v 26.250252 c 0,0.93155 -0.680748,1.704631 -1.570961,1.850702 -0.179145,0.02893 -0.304546,0.191548 -0.304546,0.372073 v 3.027548 c 0,0.206708 0.168119,0.374827 0.374826,0.374827 h 8.999967 c 4.142381,0 7.500663,-3.358279 7.500663,-7.500662 z m 0,0"
       style="fill:#37545c;fill-opacity:1;fill-rule:nonzero;stroke:none;stroke-width:0.35277775"
       inkscape:connector-curvature="0" />
  </g>
</svg>
