<?xml version="1.0" encoding="UTF-8" standalone="no"?>
<svg
   xmlns:dc="http://purl.org/dc/elements/1.1/"
   xmlns:cc="http://creativecommons.org/ns#"
   xmlns:rdf="http://www.w3.org/1999/02/22-rdf-syntax-ns#"
   xmlns:svg="http://www.w3.org/2000/svg"
   xmlns="http://www.w3.org/2000/svg"
   xmlns:sodipodi="http://sodipodi.sourceforge.net/DTD/sodipodi-0.dtd"
   xmlns:inkscape="http://www.inkscape.org/namespaces/inkscape"
   id="svg899"
   version="1.1"
   viewBox="0 0 5.7152648 12.699967"
   height="12.699967mm"
   width="5.7152648mm"
   sodipodi:docname="letter_p.svg"
   inkscape:version="0.92.5 (2060ec1f9f, 2020-04-08)">
  <sodipodi:namedview
     pagecolor="#ffffff"
     bordercolor="#666666"
     borderopacity="1"
     objecttolerance="10"
     gridtolerance="10"
     guidetolerance="10"
     inkscape:pageopacity="0"
     inkscape:pageshadow="2"
     inkscape:window-width="793"
     inkscape:window-height="480"
     id="namedview7"
     showgrid="false"
     fit-margin-top="0"
     fit-margin-left="0"
     fit-margin-right="0"
     fit-margin-bottom="0"
     inkscape:zoom="0.83257375"
     inkscape:cx="-90.974286"
     inkscape:cy="22.690053"
     inkscape:window-x="4455"
     inkscape:window-y="314"
     inkscape:window-maximized="0"
     inkscape:current-layer="svg899" />
  <defs
     id="defs893" />
  <metadata
     id="metadata896">
    <rdf:RDF>
      <cc:Work
         rdf:about="">
        <dc:format>image/svg+xml</dc:format>
        <dc:type
           rdf:resource="http://purl.org/dc/dcmitype/StillImage" />
        <dc:title></dc:title>
      </cc:Work>
    </rdf:RDF>
  </metadata>
  <g
     transform="matrix(0.33867319,0,0,0.33867319,-27.096802,-30.486774)"
     id="layer1"
     style="fill:#37545c;fill-opacity:1">
    <path
       id="path30"
       d="m 93.134514,97.517552 c 0,4.077618 -3.939812,7.168558 -6.108845,8.563128 0,0 -0.401006,0.24805 -0.771701,0.57327 -0.241156,0.21084 -0.620117,0.0372 -0.620117,-0.28388 V 94.142739 c 0,-0.206707 0.16812,-0.374827 0.374827,-0.374827 h 3.374816 c 2.071191,0 3.75102,1.67845 3.75102,3.74964 z m 3.749643,0 c 0,-4.14238 -3.358278,-7.499283 -7.500663,-7.499283 h -8.999967 c -0.206707,0 -0.374826,0.16812 -0.374826,0.374826 v 3.026174 c 0,0.181899 0.126777,0.344509 0.304546,0.373447 0.890213,0.146071 1.570965,0.917773 1.570965,1.850704 v 26.24887 c 0,0.93293 -0.680752,1.70601 -1.570965,1.85071 -0.177769,0.0289 -0.304546,0.19292 -0.304546,0.37345 v 3.02617 c 0,0.20808 0.168119,0.37483 0.374826,0.37483 h 6.751009 c 0.206707,0 0.374827,-0.16675 0.374827,-0.37483 v -3.02617 c 0,-0.18053 -0.126782,-0.34451 -0.304546,-0.37345 -0.891593,-0.1447 -1.570966,-0.91778 -1.570966,-1.85071 v -7.49928 c 0,-2.04088 1.806611,-4.05833 3.373438,-5.42534 l 2.889748,-2.10288 -0.0014,-0.001 c 3.00826,-2.01883 4.9885,-5.45014 4.9885,-9.345859"
       style="fill:#37545c;fill-opacity:1;fill-rule:nonzero;stroke:none;stroke-width:0.35277775"
       inkscape:connector-curvature="0" />
  </g>
</svg>
