<?xml version="1.0" encoding="UTF-8" standalone="no"?>
<svg
   xmlns:dc="http://purl.org/dc/elements/1.1/"
   xmlns:cc="http://creativecommons.org/ns#"
   xmlns:rdf="http://www.w3.org/1999/02/22-rdf-syntax-ns#"
   xmlns:svg="http://www.w3.org/2000/svg"
   xmlns="http://www.w3.org/2000/svg"
   xmlns:sodipodi="http://sodipodi.sourceforge.net/DTD/sodipodi-0.dtd"
   xmlns:inkscape="http://www.inkscape.org/namespaces/inkscape"
   id="svg1291"
   version="1.1"
   viewBox="0 0 5.7150002 12.699845"
   height="12.699845mm"
   width="5.7150002mm"
   sodipodi:docname="letter_x.svg"
   inkscape:version="0.92.5 (2060ec1f9f, 2020-04-08)">
  <sodipodi:namedview
     pagecolor="#ffffff"
     bordercolor="#666666"
     borderopacity="1"
     objecttolerance="10"
     gridtolerance="10"
     guidetolerance="10"
     inkscape:pageopacity="0"
     inkscape:pageshadow="2"
     inkscape:window-width="1085"
     inkscape:window-height="615"
     id="namedview7"
     showgrid="false"
     fit-margin-top="0"
     fit-margin-left="0"
     fit-margin-right="0"
     fit-margin-bottom="0"
     inkscape:zoom="1.6650867"
     inkscape:cx="-98.203337"
     inkscape:cy="23.999712"
     inkscape:window-x="4388"
     inkscape:window-y="197"
     inkscape:window-maximized="0"
     inkscape:current-layer="svg1291" />
  <defs
     id="defs1285" />
  <metadata
     id="metadata1288">
    <rdf:RDF>
      <cc:Work
         rdf:about="">
        <dc:format>image/svg+xml</dc:format>
        <dc:type
           rdf:resource="http://purl.org/dc/dcmitype/StillImage" />
        <dc:title />
      </cc:Work>
    </rdf:RDF>
  </metadata>
  <g
     transform="matrix(0.33865756,0,0,0.33865756,-30.679678,-23.828901)"
     id="layer1"
     style="fill:#37545c;fill-opacity:1">
    <path
       id="path22"
       d="m 101.80513,93.972746 c 3.33072,-1.437294 5.66236,-4.751476 5.66236,-8.609982 V 70.737645 c 0,-0.206706 -0.16812,-0.374826 -0.37483,-0.374826 h -4.8755 c -0.2067,0 -0.37482,0.16812 -0.37482,0.374826 v 1.152042 c 0,0.18052 0.1254,0.343129 0.30454,0.372068 0.89022,0.146074 1.57097,0.919152 1.57097,1.850707 V 85.73759 c 0,2.709224 -2.05328,4.938889 -4.688086,5.218631 -2.634809,-0.279742 -4.686709,-2.509407 -4.686709,-5.218631 V 74.112462 c 0,-0.931555 0.679372,-1.704633 1.569586,-1.850707 0.179144,-0.02893 0.304546,-0.191548 0.304546,-0.372068 v -1.152042 c 0,-0.206706 -0.16812,-0.374826 -0.374827,-0.374826 h -4.875498 c -0.206706,0 -0.374826,0.16812 -0.374826,0.374826 v 14.625119 c 0,3.858506 2.331639,7.172688 5.662358,8.609982 0.24529,0.106109 0.308681,0.421679 0.119888,0.610471 l -2.468065,2.470824 c -1.898936,1.898936 -3.09094,4.402839 -3.314181,7.058309 v 3.37482 c 0,0.20808 0.16812,0.3762 0.374826,0.3762 h 4.875498 c 0.206707,0 0.374827,-0.16812 0.374827,-0.3762 v -2.99999 c 0,-0.20671 -0.16812,-0.37483 -0.374827,-0.37483 -0.778591,0 -1.344965,-0.76205 -1.095541,-1.4993 0.372072,-1.09692 0.990809,-2.10565 1.825901,-2.939359 l 2.2903,-2.290299 c 0.05926,-0.05926 0.111622,-0.122648 0.166744,-0.186034 0.05512,0.06339 0.108864,0.126778 0.16812,0.186034 l 2.288926,2.290299 c 0.83509,0.833709 1.4552,1.842439 1.8259,2.939359 0.24942,0.73725 -0.31695,1.4993 -1.09555,1.4993 -0.2067,0 -0.37482,0.16812 -0.37482,0.37483 v 2.99999 c 0,0.20808 0.16812,0.3762 0.37482,0.3762 h 4.8755 c 0.20671,0 0.37483,-0.16812 0.37483,-0.3762 v -3.37482 c -0.22186,-2.65547 -1.41524,-5.159373 -3.3128,-7.058309 l -2.46945,-2.470824 c -0.18879,-0.188792 -0.12402,-0.504362 0.11989,-0.610471"
       style="fill:#37545c;fill-opacity:1;fill-rule:nonzero;stroke:none;stroke-width:0.35277775"
       inkscape:connector-curvature="0" />
  </g>
</svg>
