<?xml version="1.0" encoding="UTF-8" standalone="no"?>
<svg
   xmlns:dc="http://purl.org/dc/elements/1.1/"
   xmlns:cc="http://creativecommons.org/ns#"
   xmlns:rdf="http://www.w3.org/1999/02/22-rdf-syntax-ns#"
   xmlns:svg="http://www.w3.org/2000/svg"
   xmlns="http://www.w3.org/2000/svg"
   xmlns:sodipodi="http://sodipodi.sourceforge.net/DTD/sodipodi-0.dtd"
   xmlns:inkscape="http://www.inkscape.org/namespaces/inkscape"
   id="svg652"
   version="1.1"
   viewBox="0 0 5.7150002 12.699845"
   height="12.699845mm"
   width="5.7150002mm"
   sodipodi:docname="letter_k.svg"
   inkscape:version="0.92.5 (2060ec1f9f, 2020-04-08)">
  <sodipodi:namedview
     pagecolor="#ffffff"
     bordercolor="#666666"
     borderopacity="1"
     objecttolerance="10"
     gridtolerance="10"
     guidetolerance="10"
     inkscape:pageopacity="0"
     inkscape:pageshadow="2"
     inkscape:window-width="1920"
     inkscape:window-height="1015"
     id="namedview8"
     showgrid="false"
     fit-margin-top="0"
     fit-margin-left="0"
     fit-margin-right="0"
     fit-margin-bottom="0"
     inkscape:zoom="1.6650864"
     inkscape:cx="-98.203354"
     inkscape:cy="23.999707"
     inkscape:window-x="3840"
     inkscape:window-y="0"
     inkscape:window-maximized="1"
     inkscape:current-layer="svg652" />
  <defs
     id="defs646" />
  <metadata
     id="metadata649">
    <rdf:RDF>
      <cc:Work
         rdf:about="">
        <dc:format>image/svg+xml</dc:format>
        <dc:type
           rdf:resource="http://purl.org/dc/dcmitype/StillImage" />
        <dc:title></dc:title>
      </cc:Work>
    </rdf:RDF>
  </metadata>
  <g
     transform="matrix(0.33865752,0,0,0.33865752,-17.111199,-24.340916)"
     id="layer1"
     style="fill:#37545c;fill-opacity:1">
    <path
       id="path18"
       d="m 55.776882,71.874724 h -4.875498 c -0.206706,0 -0.374826,0.16812 -0.374826,0.374827 V 75.2771 c 0,0.180524 0.125402,0.343133 0.304546,0.372071 0.890213,0.146071 1.570965,0.919152 1.570965,1.850704 v 26.250255 c 0,0.93155 -0.680752,1.70463 -1.570965,1.8507 -0.179144,0.0289 -0.304546,0.19155 -0.304546,0.37207 v 3.02755 c 0,0.20671 0.16812,0.37483 0.374826,0.37483 h 4.875498 c 0.206707,0 0.374827,-0.16812 0.374827,-0.37483 V 72.249551 c 0,-0.206707 -0.16812,-0.374827 -0.374827,-0.374827"
       style="fill:#37545c;fill-opacity:1;fill-rule:nonzero;stroke:none;stroke-width:0.35277775"
       inkscape:connector-curvature="0" />
    <path
       id="path20"
       d="m 61.739656,95.486031 c 3.330716,-1.438674 5.662358,-4.752855 5.662358,-8.611362 V 72.249551 c 0,-0.206707 -0.168119,-0.374827 -0.374826,-0.374827 H 62.15169 c -0.206707,0 -0.374826,0.16812 -0.374826,0.374827 V 75.2771 c 0,0.180524 0.125401,0.343133 0.304546,0.372071 0.890213,0.146071 1.570961,0.919152 1.570961,1.850704 v 9.749621 c 0,2.900771 -2.350932,5.250324 -5.250325,5.250324 -0.206706,0 -0.374826,0.16812 -0.374826,0.374827 v 3.352768 c 0,1.000456 0.396875,1.960947 1.10381,2.667882 l 2.290297,2.290303 c 0.835092,0.83371 1.453833,1.84243 1.825904,2.93935 0.249424,0.73863 -0.31695,1.50068 -1.095541,1.50068 -0.206707,0 -0.374826,0.16813 -0.374826,0.37483 v 2.99999 c 0,0.20671 0.168119,0.37483 0.374826,0.37483 h 4.875498 c 0.206707,0 0.374826,-0.16812 0.374826,-0.37483 v -3.37482 c -0.221865,-2.65548 -1.415245,-5.16075 -3.314181,-7.059686 L 61.619765,96.095123 C 61.430976,95.90633 61.494366,95.59076 61.739656,95.486031"
       style="fill:#37545c;fill-opacity:1;fill-rule:nonzero;stroke:none;stroke-width:0.35277775"
       inkscape:connector-curvature="0" />
  </g>
</svg>
