<?xml version="1.0" encoding="UTF-8" standalone="no"?>
<svg
   xmlns:dc="http://purl.org/dc/elements/1.1/"
   xmlns:cc="http://creativecommons.org/ns#"
   xmlns:rdf="http://www.w3.org/1999/02/22-rdf-syntax-ns#"
   xmlns:svg="http://www.w3.org/2000/svg"
   xmlns="http://www.w3.org/2000/svg"
   xmlns:sodipodi="http://sodipodi.sourceforge.net/DTD/sodipodi-0.dtd"
   xmlns:inkscape="http://www.inkscape.org/namespaces/inkscape"
   id="svg1193"
   version="1.1"
   viewBox="0 0 13.647533 27.311441"
   height="12.699913mm"
   width="6.3761935mm"
   sodipodi:docname="letter_v.svg"
   inkscape:version="0.92.5 (2060ec1f9f, 2020-04-08)">
  <sodipodi:namedview
     pagecolor="#ffffff"
     bordercolor="#666666"
     borderopacity="1"
     objecttolerance="10"
     gridtolerance="10"
     guidetolerance="10"
     inkscape:pageopacity="0"
     inkscape:pageshadow="2"
     inkscape:window-width="1090"
     inkscape:window-height="605"
     id="namedview7"
     showgrid="false"
     fit-margin-top="0"
     fit-margin-left="0"
     fit-margin-right="0"
     fit-margin-bottom="0"
     inkscape:zoom="3.5920253"
     inkscape:cx="-38.471986"
     inkscape:cy="23.999838"
     inkscape:window-x="4314"
     inkscape:window-y="175"
     inkscape:window-maximized="0"
     inkscape:current-layer="svg1193" />
  <defs
     id="defs1187" />
  <metadata
     id="metadata1190">
    <rdf:RDF>
      <cc:Work
         rdf:about="">
        <dc:format>image/svg+xml</dc:format>
        <dc:type
           rdf:resource="http://purl.org/dc/dcmitype/StillImage" />
        <dc:title></dc:title>
      </cc:Work>
    </rdf:RDF>
  </metadata>
  <g
     transform="matrix(0.73057636,0,0,0.73057636,-56.144336,-46.477671)"
     id="layer1"
     style="fill:#37545c;fill-opacity:1">
    <path
       id="path46"
       d="m 95.188151,63.617814 h -6.74963 c -0.206707,0 -0.374826,0.168119 -0.374826,0.374826 v 1.152042 c 0,0.18052 0.125402,0.343129 0.304546,0.372067 0.890213,0.146075 1.569585,0.919152 1.569585,1.850708 L 86.178539,86.611759 82.419251,67.367457 c 0,-0.931556 0.679372,-1.704633 1.570961,-1.850708 0.177768,-0.02893 0.30317,-0.191547 0.30317,-0.372067 V 63.99264 c 0,-0.206707 -0.166743,-0.374826 -0.374826,-0.374826 h -6.74963 c -0.206707,0 -0.374826,0.168119 -0.374826,0.374826 v 1.152042 c 0,0.18052 0.125398,0.343129 0.304546,0.372067 0.89021,0.146075 1.569586,0.919152 1.569586,1.850708 l 5.636175,27.964527 -0.01101,0.0441 c 0,0.931553 -0.679373,1.706012 -1.569586,1.850705 -0.179144,0.02893 -0.304546,0.191548 -0.304546,0.37207 v 3.027551 c 0,0.2067 0.16812,0.37482 0.374826,0.37482 h 6.768924 c 0.208082,0 0.374826,-0.16812 0.374826,-0.37482 v -3.027551 c 0,-0.180522 -0.125402,-0.343132 -0.30317,-0.37207 -0.891589,-0.144693 -1.570962,-0.919152 -1.570962,-1.850705 l -0.0096,-0.0441 5.634799,-27.964527 c 0,-0.931556 0.679372,-1.704633 1.570965,-1.850708 0.177765,-0.02893 0.303167,-0.191547 0.303167,-0.372067 V 63.99264 c 0,-0.206707 -0.16812,-0.374826 -0.374827,-0.374826"
       style="fill:#37545c;fill-opacity:1;fill-rule:nonzero;stroke:none;stroke-width:0.35277775"
       inkscape:connector-curvature="0" />
  </g>
</svg>
