<?xml version="1.0" encoding="UTF-8" standalone="no"?>
<svg
   xmlns:dc="http://purl.org/dc/elements/1.1/"
   xmlns:cc="http://creativecommons.org/ns#"
   xmlns:rdf="http://www.w3.org/1999/02/22-rdf-syntax-ns#"
   xmlns:svg="http://www.w3.org/2000/svg"
   xmlns="http://www.w3.org/2000/svg"
   xmlns:sodipodi="http://sodipodi.sourceforge.net/DTD/sodipodi-0.dtd"
   xmlns:inkscape="http://www.inkscape.org/namespaces/inkscape"
   id="svg504"
   version="1.1"
   viewBox="0 0 6.3497351 12.69994"
   height="12.69994mm"
   width="6.3497353mm"
   sodipodi:docname="letter_h.svg"
   inkscape:version="0.92.5 (2060ec1f9f, 2020-04-08)">
  <sodipodi:namedview
     pagecolor="#ffffff"
     bordercolor="#666666"
     borderopacity="1"
     objecttolerance="10"
     gridtolerance="10"
     guidetolerance="10"
     inkscape:pageopacity="0"
     inkscape:pageshadow="2"
     inkscape:window-width="898"
     inkscape:window-height="621"
     id="namedview7"
     showgrid="false"
     fit-margin-top="0"
     fit-margin-left="0"
     fit-margin-right="0"
     fit-margin-bottom="0"
     inkscape:zoom="1.6650866"
     inkscape:cx="-97.003844"
     inkscape:cy="23.999885"
     inkscape:window-x="4389"
     inkscape:window-y="265"
     inkscape:window-maximized="0"
     inkscape:current-layer="svg504" />
  <defs
     id="defs498" />
  <metadata
     id="metadata501">
    <rdf:RDF>
      <cc:Work
         rdf:about="">
        <dc:format>image/svg+xml</dc:format>
        <dc:type
           rdf:resource="http://purl.org/dc/dcmitype/StillImage" />
        <dc:title></dc:title>
      </cc:Work>
    </rdf:RDF>
  </metadata>
  <g
     transform="matrix(0.33866006,0,0,0.33866006,-30.106549,-14.868696)"
     id="layer1"
     style="fill:#37545c;fill-opacity:1">
    <path
       id="path54"
       d="m 107.34406,45.804801 c 0.17914,-0.02893 0.30454,-0.191548 0.30454,-0.37345 v -1.152039 c 0,-0.206706 -0.16674,-0.374826 -0.37482,-0.374826 h -5.25033 v 14.13178 c -0.0262,-0.01517 -0.0537,-0.02893 -0.0799,-0.0441 -0.0717,-0.03996 -0.14332,-0.07717 -0.21498,-0.114378 -0.13504,-0.07166 -0.27284,-0.137801 -0.41341,-0.199813 -0.0579,-0.02617 -0.11575,-0.05375 -0.17501,-0.07855 -0.17776,-0.07304 -0.35829,-0.137802 -0.54156,-0.197058 -0.0661,-0.02205 -0.13368,-0.04272 -0.19982,-0.06339 -0.1819,-0.05237 -0.36518,-0.100598 -0.552593,-0.140561 -0.0248,-0.0055 -0.04961,-0.01379 -0.07441,-0.01792 -0.212217,-0.04272 -0.428572,-0.07442 -0.6463,-0.09922 -0.0565,-0.0069 -0.114377,-0.01242 -0.172254,-0.01654 -0.224621,-0.02067 -0.449242,-0.03447 -0.679376,-0.03447 -0.228752,0 -0.454752,0.01379 -0.679373,0.03447 -0.05788,0.0041 -0.115753,0.0096 -0.172254,0.01654 -0.217731,0.0248 -0.434082,0.0565 -0.646299,0.09922 -0.0248,0.0041 -0.04961,0.01242 -0.07442,0.01792 -0.186034,0.03996 -0.370692,0.08819 -0.551216,0.140561 -0.06752,0.02067 -0.135047,0.04134 -0.201192,0.06339 -0.183279,0.05926 -0.363803,0.124022 -0.541571,0.197058 -0.05925,0.0248 -0.117132,0.05237 -0.175009,0.07855 -0.140561,0.06201 -0.278363,0.128157 -0.41341,0.199813 -0.07166,0.03721 -0.143316,0.07442 -0.213596,0.114378 -0.02755,0.01517 -0.05512,0.02893 -0.08131,0.0441 v -14.13178 h -5.250333 c -0.206707,0 -0.374827,0.16812 -0.374827,0.374826 v 1.152039 c 0,0.181902 0.125399,0.344512 0.304546,0.37345 0.89021,0.144692 1.570962,0.917773 1.570962,1.850704 v 28.124383 c 0,0.93155 -0.680752,1.704631 -1.570962,1.850702 -0.133671,0.02066 -0.2384,0.118512 -0.282497,0.241157 -0.01379,0.04134 -0.02205,0.08544 -0.02205,0.130916 v 3.027548 c 0,0.206708 0.16812,0.374827 0.374827,0.374827 h 5.250324 V 64.529582 c 0,-2.07119 1.67845,-3.749639 3.74964,-3.749639 2.071193,0 3.749643,1.678449 3.749643,3.749639 v 16.875456 h 5.25033 c 0.20808,0 0.37482,-0.168119 0.37482,-0.374827 v -3.027548 c 0,-0.04548 -0.008,-0.08957 -0.0221,-0.130916 -0.0441,-0.122645 -0.14882,-0.220488 -0.2825,-0.241157 -0.89021,-0.146071 -1.57096,-0.919152 -1.57096,-1.850702 V 47.655505 c 0,-0.932931 0.68075,-1.706012 1.57096,-1.850704"
       style="fill:#37545c;fill-opacity:1;fill-rule:nonzero;stroke:none;stroke-width:0.35277775"
       inkscape:connector-curvature="0" />
  </g>
</svg>
