<?xml version="1.0" encoding="UTF-8" standalone="no"?>
<svg
   xmlns:dc="http://purl.org/dc/elements/1.1/"
   xmlns:cc="http://creativecommons.org/ns#"
   xmlns:rdf="http://www.w3.org/1999/02/22-rdf-syntax-ns#"
   xmlns:svg="http://www.w3.org/2000/svg"
   xmlns="http://www.w3.org/2000/svg"
   xmlns:sodipodi="http://sodipodi.sourceforge.net/DTD/sodipodi-0.dtd"
   xmlns:inkscape="http://www.inkscape.org/namespaces/inkscape"
   id="svg446"
   version="1.1"
   viewBox="0 0 5.08 12.700233"
   height="12.700233mm"
   width="5.0799999mm"
   sodipodi:docname="letter_g.svg"
   inkscape:version="0.92.5 (2060ec1f9f, 2020-04-08)">
  <sodipodi:namedview
     pagecolor="#ffffff"
     bordercolor="#666666"
     borderopacity="1"
     objecttolerance="10"
     gridtolerance="10"
     guidetolerance="10"
     inkscape:pageopacity="0"
     inkscape:pageshadow="2"
     inkscape:window-width="1062"
     inkscape:window-height="670"
     id="namedview7"
     showgrid="false"
     fit-margin-top="0"
     fit-margin-left="0"
     fit-margin-right="0"
     fit-margin-bottom="0"
     inkscape:zoom="1.6650867"
     inkscape:cx="-99.403333"
     inkscape:cy="24.00044"
     inkscape:window-x="4421"
     inkscape:window-y="155"
     inkscape:window-maximized="0"
     inkscape:current-layer="svg446" />
  <defs
     id="defs440" />
  <metadata
     id="metadata443">
    <rdf:RDF>
      <cc:Work
         rdf:about="">
        <dc:format>image/svg+xml</dc:format>
        <dc:type
           rdf:resource="http://purl.org/dc/dcmitype/StillImage" />
        <dc:title></dc:title>
      </cc:Work>
    </rdf:RDF>
  </metadata>
  <g
     transform="matrix(0.33866791,0,0,0.33866791,-28.694051,-37.142502)"
     id="layer1"
     style="fill:#37545c;fill-opacity:1">
    <path
       id="path38"
       d="m 94.405558,120.89784 c -0.177768,0.0289 -0.304546,0.19155 -0.304546,0.37345 v 1.15204 c 0,0.20671 0.16812,0.37483 0.374826,0.37483 h 4.875499 c 0.206706,0 0.374826,-0.16812 0.374826,-0.37483 v -5.25032 c 0,-4.14239 -3.358279,-7.50067 -7.499283,-7.50067 -4.142384,0 -7.500662,3.35828 -7.500662,7.50067 v 22.49922 c 0,4.14238 3.358278,7.50066 7.500662,7.50066 4.141004,0 7.499283,-3.35828 7.499283,-7.50066 v -10.8741 c 0,-0.20808 -0.16812,-0.37483 -0.374826,-0.37483 h -6.749631 c -0.208086,0 -0.374826,0.16675 -0.374826,0.37483 v 2.99999 c 0,0.20671 0.16674,0.37483 0.374826,0.37483 0,0 1.774914,0.0193 1.803852,0.0248 0.890214,0.14469 1.570962,0.91777 1.570962,1.8507 v 5.62378 c 0,2.07119 -1.679826,3.75102 -3.74964,3.75102 -2.071194,0 -3.751019,-1.67983 -3.751019,-3.75102 V 117.173 c 0,-2.07119 1.679825,-3.74964 3.751019,-3.74964 2.069814,0 3.74964,1.67845 3.74964,3.74964 v 1.87413 c 0,0.93294 -0.680748,1.70601 -1.570962,1.85071"
       style="fill:#37545c;fill-opacity:1;fill-rule:nonzero;stroke:none;stroke-width:0.35277775"
       inkscape:connector-curvature="0" />
  </g>
</svg>
