<?xml version="1.0" encoding="UTF-8" standalone="no"?>
<svg
   xmlns:dc="http://purl.org/dc/elements/1.1/"
   xmlns:cc="http://creativecommons.org/ns#"
   xmlns:rdf="http://www.w3.org/1999/02/22-rdf-syntax-ns#"
   xmlns:svg="http://www.w3.org/2000/svg"
   xmlns="http://www.w3.org/2000/svg"
   xmlns:sodipodi="http://sodipodi.sourceforge.net/DTD/sodipodi-0.dtd"
   xmlns:inkscape="http://www.inkscape.org/namespaces/inkscape"
   id="svg850"
   version="1.1"
   viewBox="0 0 5.0800001 12.700235"
   height="12.700234mm"
   width="5.0799999mm"
   sodipodi:docname="letter_o.svg"
   inkscape:version="0.92.5 (2060ec1f9f, 2020-04-08)">
  <sodipodi:namedview
     pagecolor="#ffffff"
     bordercolor="#666666"
     borderopacity="1"
     objecttolerance="10"
     gridtolerance="10"
     guidetolerance="10"
     inkscape:pageopacity="0"
     inkscape:pageshadow="2"
     inkscape:window-width="793"
     inkscape:window-height="480"
     id="namedview7"
     showgrid="false"
     fit-margin-top="0"
     fit-margin-left="0"
     fit-margin-right="0"
     fit-margin-bottom="0"
     inkscape:zoom="1.1773937"
     inkscape:cx="-101.77134"
     inkscape:cy="10.80438"
     inkscape:window-x="4490"
     inkscape:window-y="237"
     inkscape:window-maximized="0"
     inkscape:current-layer="svg850" />
  <defs
     id="defs844" />
  <metadata
     id="metadata847">
    <rdf:RDF>
      <cc:Work
         rdf:about="">
        <dc:format>image/svg+xml</dc:format>
        <dc:type
           rdf:resource="http://purl.org/dc/dcmitype/StillImage" />
        <dc:title></dc:title>
      </cc:Work>
    </rdf:RDF>
  </metadata>
  <g
     transform="matrix(0.33866787,0,0,0.33866787,-32.534299,-38.422581)"
     id="layer1"
     style="fill:#37545c;fill-opacity:1">
    <path
       id="path14"
       d="m 107.31581,143.452 c 0,2.07119 -1.67845,3.74964 -3.74965,3.74964 -2.07119,0 -3.751015,-1.67845 -3.751015,-3.74964 v -22.50061 c 0,-2.06981 1.679825,-3.74964 3.751015,-3.74964 2.0712,0 3.74965,1.67983 3.74965,3.74964 z m -3.74965,-29.9999 c -4.142378,0 -7.500657,3.35828 -7.500657,7.49929 V 143.452 c 0,4.14238 3.358279,7.50066 7.500657,7.50066 4.14239,0 7.49929,-3.35828 7.49929,-7.50066 v -22.50061 c 0,-4.14101 -3.3569,-7.49929 -7.49929,-7.49929"
       style="fill:#37545c;fill-opacity:1;fill-rule:nonzero;stroke:none;stroke-width:0.35277775"
       inkscape:connector-curvature="0" />
  </g>
</svg>
