<?xml version="1.0" encoding="UTF-8" standalone="no"?>
<svg
   xmlns:dc="http://purl.org/dc/elements/1.1/"
   xmlns:cc="http://creativecommons.org/ns#"
   xmlns:rdf="http://www.w3.org/1999/02/22-rdf-syntax-ns#"
   xmlns:svg="http://www.w3.org/2000/svg"
   xmlns="http://www.w3.org/2000/svg"
   xmlns:sodipodi="http://sodipodi.sourceforge.net/DTD/sodipodi-0.dtd"
   xmlns:inkscape="http://www.inkscape.org/namespaces/inkscape"
   id="svg948"
   version="1.1"
   viewBox="0 0 5.0799998 12.700228"
   height="12.700228mm"
   width="5.0799999mm"
   sodipodi:docname="letter_q.svg"
   inkscape:version="0.92.5 (2060ec1f9f, 2020-04-08)">
  <sodipodi:namedview
     pagecolor="#ffffff"
     bordercolor="#666666"
     borderopacity="1"
     objecttolerance="10"
     gridtolerance="10"
     guidetolerance="10"
     inkscape:pageopacity="0"
     inkscape:pageshadow="2"
     inkscape:window-width="1039"
     inkscape:window-height="619"
     id="namedview7"
     showgrid="false"
     fit-margin-top="0"
     fit-margin-left="0"
     fit-margin-right="0"
     fit-margin-bottom="0"
     inkscape:zoom="1.6650867"
     inkscape:cx="-99.403336"
     inkscape:cy="24.000437"
     inkscape:window-x="4293"
     inkscape:window-y="187"
     inkscape:window-maximized="0"
     inkscape:current-layer="svg948" />
  <defs
     id="defs942" />
  <metadata
     id="metadata945">
    <rdf:RDF>
      <cc:Work
         rdf:about="">
        <dc:format>image/svg+xml</dc:format>
        <dc:type
           rdf:resource="http://purl.org/dc/dcmitype/StillImage" />
        <dc:title></dc:title>
      </cc:Work>
    </rdf:RDF>
  </metadata>
  <g
     transform="matrix(0.33866776,0,0,0.33866776,-25.36582,-23.829618)"
     id="layer1"
     style="fill:#37545c;fill-opacity:1">
    <path
       id="path56"
       d="m 82.399479,102.23822 c -2.07119,0 -3.749643,-1.67983 -3.749643,-3.751018 V 77.863481 c 0,-2.07119 1.678453,-3.751019 3.749643,-3.751019 2.07119,0 3.749644,1.679829 3.749644,3.751019 v 20.623721 c 0,0.210836 -0.02205,0.414787 -0.05512,0.615982 -1.270556,-1.412492 -3.067518,-2.345423 -5.083586,-2.474956 -0.261829,-0.01654 -0.486449,0.186034 -0.486449,0.449237 v 2.862186 c 0,0.228759 0.173633,0.420299 0.401009,0.443729 1.129993,0.12127 2.109777,0.74277 2.713359,1.63986 -0.388606,0.13643 -0.804775,0.21498 -1.238857,0.21498 z m 7.499283,4.09691 c 0,-0.18052 -0.14745,-0.34451 -0.325215,-0.37621 -0.880569,-0.15296 -1.548917,-0.9219 -1.548917,-1.84657 0,-0.21635 -0.01517,-0.42857 -0.03305,-0.63941 1.182359,-1.32567 1.907205,-3.06889 1.907205,-4.985738 V 77.863481 c -5e-6,-4.142383 -3.356904,-7.500662 -7.499288,-7.500662 -4.142384,0 -7.500663,3.358279 -7.500663,7.500662 v 20.623721 c 0,4.142378 3.358279,7.500658 7.500663,7.500658 0.649054,0 1.274685,-0.0909 1.874131,-0.24667 v 1.67294 c 0,0.24805 0.201193,0.44924 0.449242,0.44924 h 4.801084 c 0.208085,0 0.374826,-0.16812 0.374826,-0.3762 z m 0,0"
       style="fill:#37545c;fill-opacity:1;fill-rule:nonzero;stroke:none;stroke-width:0.35277775"
       inkscape:connector-curvature="0" />
  </g>
</svg>
