<?xml version="1.0" encoding="UTF-8" standalone="no"?>
<svg
   xmlns:dc="http://purl.org/dc/elements/1.1/"
   xmlns:cc="http://creativecommons.org/ns#"
   xmlns:rdf="http://www.w3.org/1999/02/22-rdf-syntax-ns#"
   xmlns:svg="http://www.w3.org/2000/svg"
   xmlns="http://www.w3.org/2000/svg"
   xmlns:sodipodi="http://sodipodi.sourceforge.net/DTD/sodipodi-0.dtd"
   xmlns:inkscape="http://www.inkscape.org/namespaces/inkscape"
   id="svg801"
   version="1.1"
   viewBox="0 0 13.606898 27.213659"
   height="12.699924mm"
   width="6.3497353mm"
   sodipodi:docname="letter_n.svg"
   inkscape:version="0.92.5 (2060ec1f9f, 2020-04-08)">
  <sodipodi:namedview
     pagecolor="#ffffff"
     bordercolor="#666666"
     borderopacity="1"
     objecttolerance="10"
     gridtolerance="10"
     guidetolerance="10"
     inkscape:pageopacity="0"
     inkscape:pageshadow="2"
     inkscape:window-width="793"
     inkscape:window-height="480"
     id="namedview7"
     showgrid="false"
     fit-margin-top="0"
     fit-margin-left="0"
     fit-margin-right="0"
     fit-margin-bottom="0"
     inkscape:zoom="2.5229435"
     inkscape:cx="-36.545685"
     inkscape:cy="22.379055"
     inkscape:window-x="4451"
     inkscape:window-y="210"
     inkscape:window-maximized="0"
     inkscape:current-layer="svg801" />
  <defs
     id="defs795" />
  <metadata
     id="metadata798">
    <rdf:RDF>
      <cc:Work
         rdf:about="">
        <dc:format>image/svg+xml</dc:format>
        <dc:type
           rdf:resource="http://purl.org/dc/dcmitype/StillImage" />
        <dc:title></dc:title>
      </cc:Work>
    </rdf:RDF>
  </metadata>
  <g
     transform="matrix(0.72571634,0,0,0.72571634,-40.925359,-75.202846)"
     id="layer1"
     style="fill:#37545c;fill-opacity:1">
    <path
       id="path2"
       d="m 73.26853,124.24982 v -16.87546 c 0,-0.93155 0.679379,-1.70463 1.570955,-1.84932 0.177764,-0.0289 0.303177,-0.19293 0.303177,-0.37345 v -1.15204 c 0,-0.20671 -0.166758,-0.37483 -0.374827,-0.37483 h -5.250321 v 6.28248 c 0,0 -7.019748,-5.73815 -7.499279,-6.28248 h -5.250356 c -0.206693,0 -0.374827,0.16812 -0.374827,0.37483 v 1.15204 c 0,0.18052 0.125413,0.34451 0.304553,0.37345 0.890235,0.14469 1.57099,0.91777 1.57099,1.84932 v 30.00127 c 0,0.93156 -0.680755,1.70464 -1.57099,1.84933 -0.17914,0.0289 -0.304553,0.19293 -0.304553,0.37345 v 1.15204 c 0,0.20671 0.168134,0.37483 0.374827,0.37483 h 5.250356 v -32.81523 c 1.145152,0.78135 5.485941,4.46622 7.499279,6.56498 v 26.25025 h 5.250321 c 0.208069,0 0.374827,-0.16812 0.374827,-0.37483 v -1.15204 c 0,-0.18052 -0.125413,-0.34451 -0.303177,-0.37345 -0.891576,-0.14469 -1.570955,-0.91777 -1.570955,-1.84933 z m 0,0"
       style="fill:#37545c;fill-opacity:1;fill-rule:nonzero;stroke:none;stroke-width:0.35277775"
       inkscape:connector-curvature="0" />
  </g>
</svg>
