<?xml version="1.0" encoding="UTF-8" standalone="no"?>
<svg
   xmlns:dc="http://purl.org/dc/elements/1.1/"
   xmlns:cc="http://creativecommons.org/ns#"
   xmlns:rdf="http://www.w3.org/1999/02/22-rdf-syntax-ns#"
   xmlns:svg="http://www.w3.org/2000/svg"
   xmlns="http://www.w3.org/2000/svg"
   xmlns:sodipodi="http://sodipodi.sourceforge.net/DTD/sodipodi-0.dtd"
   xmlns:inkscape="http://www.inkscape.org/namespaces/inkscape"
   id="svg342"
   version="1.1"
   viewBox="0 0 5.0799998 12.700225"
   height="12.700225mm"
   width="5.0799999mm"
   sodipodi:docname="letter_e.svg"
   inkscape:version="0.92.5 (2060ec1f9f, 2020-04-08)">
  <sodipodi:namedview
     pagecolor="#ffffff"
     bordercolor="#666666"
     borderopacity="1"
     objecttolerance="10"
     gridtolerance="10"
     guidetolerance="10"
     inkscape:pageopacity="0"
     inkscape:pageshadow="2"
     inkscape:window-width="1920"
     inkscape:window-height="1015"
     id="namedview7"
     showgrid="false"
     fit-margin-top="0"
     fit-margin-left="0"
     fit-margin-right="0"
     fit-margin-bottom="0"
     inkscape:zoom="1.6650866"
     inkscape:cx="-99.403339"
     inkscape:cy="24.000424"
     inkscape:window-x="3840"
     inkscape:window-y="0"
     inkscape:window-maximized="1"
     inkscape:current-layer="svg342" />
  <defs
     id="defs336" />
  <metadata
     id="metadata339">
    <rdf:RDF>
      <cc:Work
         rdf:about="">
        <dc:format>image/svg+xml</dc:format>
        <dc:type
           rdf:resource="http://purl.org/dc/dcmitype/StillImage" />
        <dc:title />
      </cc:Work>
    </rdf:RDF>
  </metadata>
  <g
     transform="matrix(0.33866767,0,0,0.33866767,-7.1886321,-23.573595)"
     id="layer1"
     style="fill:#37545c;fill-opacity:1">
    <path
       id="path40"
       d="m 36.226168,99.606757 v -5.186934 c 0,-0.206707 -0.168119,-0.374826 -0.374826,-0.374826 h -3.004121 c -0.208086,0 -0.376206,0.168119 -0.376206,0.374826 l 0.0055,5.186934 c 0,2.071193 -1.678453,3.751023 -3.749643,3.751023 -2.07119,0 -3.751019,-1.67983 -3.751019,-3.751023 V 77.107529 c 0,-2.071194 1.679829,-3.749643 3.751019,-3.749643 2.07119,0 3.749643,1.678449 3.749643,3.749643 v 7.562674 c 0,1.034905 -0.839226,1.874131 -1.875511,1.874131 h -3.37619 c -0.206706,0 -0.374826,0.16812 -0.374826,0.376203 v 2.99999 c 0,0.206707 0.16812,0.374827 0.374826,0.374827 h 8.626518 c 0.206706,0 0.374826,-0.16812 0.374826,-0.374827 V 77.107529 c 0,-4.142384 -3.356899,-7.500662 -7.499283,-7.500662 -4.142384,0 -7.500662,3.358278 -7.500662,7.500662 v 22.499228 c 0,4.142383 3.358278,7.500663 7.500662,7.500663 4.142384,0 7.499283,-3.35828 7.499283,-7.500663"
       style="fill:#37545c;fill-opacity:1;fill-rule:nonzero;stroke:none;stroke-width:0.35277775"
       inkscape:connector-curvature="0" />
  </g>
</svg>
