<?xml version="1.0" encoding="UTF-8" standalone="no"?>
<svg
   xmlns:dc="http://purl.org/dc/elements/1.1/"
   xmlns:cc="http://creativecommons.org/ns#"
   xmlns:rdf="http://www.w3.org/1999/02/22-rdf-syntax-ns#"
   xmlns:svg="http://www.w3.org/2000/svg"
   xmlns="http://www.w3.org/2000/svg"
   xmlns:sodipodi="http://sodipodi.sourceforge.net/DTD/sodipodi-0.dtd"
   xmlns:inkscape="http://www.inkscape.org/namespaces/inkscape"
   id="svg1389"
   version="1.1"
   viewBox="0 0 5.7152648 12.699967"
   height="12.699967mm"
   width="5.7152648mm"
   sodipodi:docname="letter_z.svg"
   inkscape:version="0.92.5 (2060ec1f9f, 2020-04-08)">
  <sodipodi:namedview
     pagecolor="#ffffff"
     bordercolor="#666666"
     borderopacity="1"
     objecttolerance="10"
     gridtolerance="10"
     guidetolerance="10"
     inkscape:pageopacity="0"
     inkscape:pageshadow="2"
     inkscape:window-width="1194"
     inkscape:window-height="583"
     id="namedview7"
     showgrid="false"
     fit-margin-top="0"
     fit-margin-left="0"
     fit-margin-right="0"
     fit-margin-bottom="0"
     inkscape:zoom="1.6651475"
     inkscape:cx="-98.198855"
     inkscape:cy="23.999935"
     inkscape:window-x="4227"
     inkscape:window-y="229"
     inkscape:window-maximized="0"
     inkscape:current-layer="svg1389" />
  <defs
     id="defs1383" />
  <metadata
     id="metadata1386">
    <rdf:RDF>
      <cc:Work
         rdf:about="">
        <dc:format>image/svg+xml</dc:format>
        <dc:type
           rdf:resource="http://purl.org/dc/dcmitype/StillImage" />
        <dc:title></dc:title>
      </cc:Work>
    </rdf:RDF>
  </metadata>
  <g
     transform="matrix(0.33867319,0,0,0.33867319,-25.560677,-23.062171)"
     id="layer1"
     style="fill:#37545c;fill-opacity:1">
    <path
       id="path34"
       d="M 88.598803,68.09565 H 75.472986 v 5.250324 c 0,0.206707 0.16812,0.374827 0.376206,0.374827 h 1.150662 c 0.1819,0 0.344509,-0.126778 0.373448,-0.304546 0.144695,-0.890214 0.917772,-1.570962 1.850703,-1.570962 h 8.999971 c 0.206693,0 0.374827,0.16812 0.374827,0.374826 v 4.313259 c 0,2.018827 -0.802005,3.95497 -2.229662,5.382616 l -7.145136,7.146505 -0.676613,0.676617 c -1.96784,1.966461 -3.074406,4.635722 -3.074406,7.419357 v 8.436357 h 16.875456 v -5.24895 c 0,-0.20808 -0.168134,-0.374828 -0.374826,-0.374828 h -1.152031 c -0.180516,0 -0.343147,0.125398 -0.372075,0.303168 -0.146085,0.89159 -0.919162,1.57096 -1.850707,1.57096 h -8.999971 c -0.206703,0 -0.374827,-0.16812 -0.374827,-0.37482 0,0 0,-3.456124 0.0055,-4.037654 0.01517,-1.896182 0.643545,-3.73035 1.980241,-5.065671 l 7.389043,-7.394553 0.436845,-0.435459 c 2.120794,-2.123556 3.312795,-5.002279 3.312795,-8.003645 V 68.09565 Z m 0,0"
       style="fill:#37545c;fill-opacity:1;fill-rule:nonzero;stroke:none;stroke-width:0.35277775"
       inkscape:connector-curvature="0" />
  </g>
</svg>
