<?xml version="1.0" encoding="UTF-8" standalone="no"?>
<svg
   xmlns:dc="http://purl.org/dc/elements/1.1/"
   xmlns:cc="http://creativecommons.org/ns#"
   xmlns:rdf="http://www.w3.org/1999/02/22-rdf-syntax-ns#"
   xmlns:svg="http://www.w3.org/2000/svg"
   xmlns="http://www.w3.org/2000/svg"
   xmlns:sodipodi="http://sodipodi.sourceforge.net/DTD/sodipodi-0.dtd"
   xmlns:inkscape="http://www.inkscape.org/namespaces/inkscape"
   id="svg1340"
   version="1.1"
   viewBox="0 0 6.3505291 12.700127"
   height="12.700127mm"
   width="6.3505292mm"
   sodipodi:docname="letter_y.svg"
   inkscape:version="0.92.5 (2060ec1f9f, 2020-04-08)">
  <sodipodi:namedview
     pagecolor="#ffffff"
     bordercolor="#666666"
     borderopacity="1"
     objecttolerance="10"
     gridtolerance="10"
     guidetolerance="10"
     inkscape:pageopacity="0"
     inkscape:pageshadow="2"
     inkscape:window-width="793"
     inkscape:window-height="480"
     id="namedview7"
     showgrid="false"
     fit-margin-top="0"
     fit-margin-left="0"
     fit-margin-right="0"
     fit-margin-bottom="0"
     inkscape:zoom="0.83257385"
     inkscape:cx="-94.957334"
     inkscape:cy="20.579765"
     inkscape:window-x="4317"
     inkscape:window-y="204"
     inkscape:window-maximized="0"
     inkscape:current-layer="svg1340" />
  <defs
     id="defs1334" />
  <metadata
     id="metadata1337">
    <rdf:RDF>
      <cc:Work
         rdf:about="">
        <dc:format>image/svg+xml</dc:format>
        <dc:type
           rdf:resource="http://purl.org/dc/dcmitype/StillImage" />
        <dc:title></dc:title>
      </cc:Work>
    </rdf:RDF>
  </metadata>
  <g
     transform="matrix(0.33867747,0,0,0.33867747,-23.70726,-33.0474)"
     id="layer1"
     style="fill:#37545c;fill-opacity:1">
    <path
       id="path6"
       d="m 88.375655,97.577793 h -5.250324 v 16.875457 c 0,2.06981 -1.679829,3.74964 -3.749643,3.74964 -2.07119,0 -3.751019,-1.67983 -3.751019,-3.74964 V 97.577793 h -5.250325 c -0.206706,0 -0.374826,0.16812 -0.374826,0.374826 v 1.152042 c 0,0.18052 0.126778,0.343129 0.304546,0.372068 0.891589,0.146074 1.570965,0.919151 1.570965,1.850711 v 13.12581 c 0,3.4947 2.390895,6.4313 5.625151,7.26364 v 7.73631 c 0,0.93155 -0.679372,1.70463 -1.570965,1.84932 -0.177765,0.0303 -0.304546,0.19293 -0.304546,0.37345 v 3.02617 c 0,0.20809 0.16812,0.37483 0.374826,0.37483 h 6.75101 c 0.206706,0 0.374826,-0.16674 0.374826,-0.37483 v -3.02617 c 0,-0.18052 -0.126778,-0.34313 -0.304546,-0.37345 -0.891589,-0.14469 -1.570965,-0.91777 -1.570965,-1.84932 v -7.73631 c 3.235635,-0.83234 5.625154,-3.76894 5.625154,-7.26364 v -12.77717 c 0,-0.93156 0.679372,-1.706013 1.570962,-1.850708 0.177768,-0.02893 0.304546,-0.191544 0.304546,-0.372068 v -1.500685 c 0,-0.206706 -0.16812,-0.374826 -0.374827,-0.374826"
       style="fill:#37545c;fill-opacity:1;fill-rule:nonzero;stroke:none;stroke-width:0.35277775"
       inkscape:connector-curvature="0" />
  </g>
</svg>
