<?xml version="1.0" encoding="UTF-8" standalone="no"?>
<svg
   xmlns:dc="http://purl.org/dc/elements/1.1/"
   xmlns:cc="http://creativecommons.org/ns#"
   xmlns:rdf="http://www.w3.org/1999/02/22-rdf-syntax-ns#"
   xmlns:svg="http://www.w3.org/2000/svg"
   xmlns="http://www.w3.org/2000/svg"
   xmlns:sodipodi="http://sodipodi.sourceforge.net/DTD/sodipodi-0.dtd"
   xmlns:inkscape="http://www.inkscape.org/namespaces/inkscape"
   id="svg153"
   version="1.1"
   viewBox="0 0 5.7150002 12.699842"
   height="12.699842mm"
   width="5.7150002mm"
   sodipodi:docname="letter_a.svg"
   inkscape:version="0.92.5 (2060ec1f9f, 2020-04-08)">
  <sodipodi:namedview
     pagecolor="#ffffff"
     bordercolor="#666666"
     borderopacity="1"
     objecttolerance="10"
     gridtolerance="10"
     guidetolerance="10"
     inkscape:pageopacity="0"
     inkscape:pageshadow="2"
     inkscape:window-width="1920"
     inkscape:window-height="1015"
     id="namedview7"
     showgrid="false"
     fit-margin-top="0"
     fit-margin-left="0"
     fit-margin-right="0"
     fit-margin-bottom="0"
     inkscape:zoom="1.6650867"
     inkscape:cx="-98.203332"
     inkscape:cy="23.9997"
     inkscape:window-x="3840"
     inkscape:window-y="0"
     inkscape:window-maximized="1"
     inkscape:current-layer="svg153" />
  <defs
     id="defs147" />
  <metadata
     id="metadata150">
    <rdf:RDF>
      <cc:Work
         rdf:about="">
        <dc:format>image/svg+xml</dc:format>
        <dc:type
           rdf:resource="http://purl.org/dc/dcmitype/StillImage" />
        <dc:title></dc:title>
      </cc:Work>
    </rdf:RDF>
  </metadata>
  <g
     transform="matrix(0.3386575,0,0,0.3386575,-26.583529,-34.83728)"
     id="layer1"
     style="fill:#37545c;fill-opacity:1">
    <path
       id="path10"
       d="m 82.246438,132.86866 c 0,-4.07624 3.939811,-7.16855 6.108843,-8.56175 0,0 0.401009,-0.24805 0.771701,-0.57326 0.241157,-0.21084 0.620117,-0.0372 0.620117,0.28387 v 12.22733 c 0,0.20671 -0.16812,0.37483 -0.374826,0.37483 h -3.374815 c -2.071192,0 -3.75102,-1.67983 -3.75102,-3.75102 z m -3.749642,0 c 0,4.14238 3.358279,7.50066 7.500662,7.50066 h 8.999969 c 0.206703,0 0.374826,-0.16812 0.374826,-0.37482 v -3.02755 c 0,-0.18053 -0.126781,-0.34313 -0.30455,-0.37207 -0.890209,-0.14608 -1.570961,-0.91916 -1.570961,-1.85071 v -24.37474 c 0,-4.14238 -3.358279,-7.50066 -7.499284,-7.50066 -4.142383,0 -7.500662,3.35828 -7.500662,7.50066 v 4.12447 c 0,2.89939 2.350933,5.25033 5.250326,5.25033 0.206705,0 0.374826,-0.16813 0.374826,-0.37483 v -3.02755 c 0,-0.18052 -0.125401,-0.34313 -0.304546,-0.37207 -0.890213,-0.14607 -1.570964,-0.91915 -1.570964,-1.85071 v -3.74964 c 0,-2.07119 1.679828,-3.74964 3.75102,-3.74964 2.071191,0 3.749641,1.67845 3.749641,3.74964 v 5.62515 c 0,2.04088 -1.805229,4.05833 -3.373437,5.42396 l -2.889746,2.10427 h 0.0014 c -3.008261,2.0202 -4.988502,5.45152 -4.988502,9.34585"
       style="fill:#37545c;fill-opacity:1;fill-rule:nonzero;stroke:none;stroke-width:0.35277775"
       inkscape:connector-curvature="0" />
  </g>
</svg>
