<?xml version="1.0" encoding="UTF-8" standalone="no"?>
<svg
   xmlns:dc="http://purl.org/dc/elements/1.1/"
   xmlns:cc="http://creativecommons.org/ns#"
   xmlns:rdf="http://www.w3.org/1999/02/22-rdf-syntax-ns#"
   xmlns:svg="http://www.w3.org/2000/svg"
   xmlns="http://www.w3.org/2000/svg"
   xmlns:sodipodi="http://sodipodi.sourceforge.net/DTD/sodipodi-0.dtd"
   xmlns:inkscape="http://www.inkscape.org/namespaces/inkscape"
   id="svg195"
   version="1.1"
   viewBox="0 0 5.7150003 12.699845"
   height="12.699843mm"
   width="5.7150002mm"
   sodipodi:docname="letter_b.svg"
   inkscape:version="0.92.5 (2060ec1f9f, 2020-04-08)">
  <sodipodi:namedview
     pagecolor="#ffffff"
     bordercolor="#666666"
     borderopacity="1"
     objecttolerance="10"
     gridtolerance="10"
     guidetolerance="10"
     inkscape:pageopacity="0"
     inkscape:pageshadow="2"
     inkscape:window-width="1920"
     inkscape:window-height="1015"
     id="namedview7"
     showgrid="false"
     fit-margin-top="0"
     fit-margin-left="0"
     fit-margin-right="0"
     fit-margin-bottom="0"
     inkscape:zoom="1.6650862"
     inkscape:cx="-98.203363"
     inkscape:cy="23.999695"
     inkscape:window-x="3840"
     inkscape:window-y="0"
     inkscape:window-maximized="1"
     inkscape:current-layer="svg195" />
  <defs
     id="defs189" />
  <metadata
     id="metadata192">
    <rdf:RDF>
      <cc:Work
         rdf:about="">
        <dc:format>image/svg+xml</dc:format>
        <dc:type
           rdf:resource="http://purl.org/dc/dcmitype/StillImage" />
        <dc:title></dc:title>
      </cc:Work>
    </rdf:RDF>
  </metadata>
  <g
     transform="matrix(0.33865746,0,0,0.33865746,-34.26378,-38.4214)"
     id="layer1"
     style="fill:#37545c;fill-opacity:1">
    <path
       id="path36"
       d="m 110.06781,128.15715 c -0.67661,0.55121 -1.33118,1.00734 -1.87551,1.35737 0,0 -0.25907,0.16123 -0.55397,0.39274 -0.0716,0.0565 -0.14469,0.11713 -0.21773,0.18052 -0.24115,0.21084 -0.62011,0.0372 -0.62011,-0.28388 v -12.22595 c 0,-0.20808 0.16811,-0.37483 0.37482,-0.37483 h 3.37482 c 2.07119,0 3.75102,1.67845 3.75102,3.74965 0,3.05511 -2.21175,5.55625 -4.23334,7.20438 m 4.23334,11.5452 v 3.74964 c 0,2.07119 -1.67983,3.75102 -3.75102,3.75102 h -3.37482 c -0.20671,0 -0.37482,-0.16812 -0.37482,-0.3762 v -8.99997 c 0,-1.05695 0.48506,-2.10839 1.16995,-3.06613 0.36656,-0.51263 0.81029,-0.96601 1.29949,-1.36013 0,0 0.92467,-0.81993 1.35323,-0.42994 1.83004,1.66053 3.67799,3.95497 3.67799,6.73171 m 3.74964,-18.74958 c 0,-4.14239 -3.35828,-7.50067 -7.50066,-7.50067 h -8.99997 c -0.20671,0 -0.37483,0.16812 -0.37483,0.37483 v 3.02755 c 0,0.18052 0.12678,0.34313 0.30455,0.37207 0.89159,0.14607 1.57097,0.91915 1.57097,1.85071 v 26.25025 c 0,0.93155 -0.68076,1.70463 -1.57097,1.8507 -0.17777,0.0289 -0.30455,0.19155 -0.30455,0.37207 v 3.02755 c 0,0.20671 0.16812,0.37483 0.37483,0.37483 h 8.99997 c 4.14238,0 7.50066,-3.35828 7.50066,-7.50067 l -0.01,-4.20164 c 0,-3.52777 -3.63113,-7.51581 -4.69635,-8.61135 -0.15434,-0.1571 -0.13781,-0.41342 0.0345,-0.55122 l 0.80339,-0.64768 c 2.36885,-2.06292 3.86816,-5.09874 3.86816,-8.48733"
       style="fill:#37545c;fill-opacity:1;fill-rule:nonzero;stroke:none;stroke-width:0.35277775"
       inkscape:connector-curvature="0" />
  </g>
</svg>
