<?xml version="1.0" encoding="UTF-8" standalone="no"?>
<svg
   xmlns:dc="http://purl.org/dc/elements/1.1/"
   xmlns:cc="http://creativecommons.org/ns#"
   xmlns:rdf="http://www.w3.org/1999/02/22-rdf-syntax-ns#"
   xmlns:svg="http://www.w3.org/2000/svg"
   xmlns="http://www.w3.org/2000/svg"
   xmlns:sodipodi="http://sodipodi.sourceforge.net/DTD/sodipodi-0.dtd"
   xmlns:inkscape="http://www.inkscape.org/namespaces/inkscape"
   id="svg1046"
   version="1.1"
   viewBox="0 0 5.7152642 12.700176"
   height="12.700175mm"
   width="5.7152643mm"
   sodipodi:docname="letter_s.svg"
   inkscape:version="0.92.5 (2060ec1f9f, 2020-04-08)">
  <sodipodi:namedview
     pagecolor="#ffffff"
     bordercolor="#666666"
     borderopacity="1"
     objecttolerance="10"
     gridtolerance="10"
     guidetolerance="10"
     inkscape:pageopacity="0"
     inkscape:pageshadow="2"
     inkscape:window-width="793"
     inkscape:window-height="480"
     id="namedview7"
     showgrid="false"
     fit-margin-top="0"
     fit-margin-left="0"
     fit-margin-right="0"
     fit-margin-bottom="0"
     inkscape:zoom="0.830864"
     inkscape:cx="-117.65023"
     inkscape:cy="16.986252"
     inkscape:window-x="4397"
     inkscape:window-y="219"
     inkscape:window-maximized="0"
     inkscape:current-layer="svg1046" />
  <defs
     id="defs1040" />
  <metadata
     id="metadata1043">
    <rdf:RDF>
      <cc:Work
         rdf:about="">
        <dc:format>image/svg+xml</dc:format>
        <dc:type
           rdf:resource="http://purl.org/dc/dcmitype/StillImage" />
        <dc:title></dc:title>
      </cc:Work>
    </rdf:RDF>
  </metadata>
  <g
     transform="matrix(0.33798322,0,0,0.33798322,-32.145761,-31.178121)"
     id="layer1"
     style="fill:#37545c;fill-opacity:1">
    <path
       id="path8"
       d="m 106.38425,108.78124 c 0,0.20671 0.16812,0.3762 0.37483,0.3762 h 4.88515 c 0.20808,0 0.3762,-0.16949 0.3762,-0.3762 v -8.07944 c 0,-4.668788 -3.78547,-8.454259 -8.45426,-8.454259 -4.670175,0 -8.455646,3.785471 -8.455646,8.454259 0,2.78915 1.107944,5.46255 3.079916,7.43452 l 7.83828,7.83828 c 1.43041,1.4304 2.2338,3.37068 2.2338,5.39502 0,2.59347 -2.10289,4.69635 -4.69635,4.69635 -2.59485,0 -4.697737,-2.10288 -4.697737,-4.69635 v -2.81809 c 0,-0.93431 0.680751,-1.70876 1.573717,-1.85484 0.17915,-0.0289 0.30455,-0.19154 0.30455,-0.37345 v -3.03306 c 0,-0.2067 -0.16812,-0.3762 -0.37483,-0.3762 h -4.88514 c -0.208086,0 -0.376206,0.1695 -0.376206,0.3762 v 8.07944 c 0,4.66879 3.785471,8.45427 8.455646,8.45427 4.66879,0 8.45426,-3.78548 8.45426,-8.45427 0,-3.00826 -1.19476,-5.89249 -3.31969,-8.02018 l -7.84242,-7.84655 c -1.339453,-1.33808 -2.061543,-3.17638 -1.984373,-5.07531 0.100598,-2.485984 2.203483,-4.422131 4.692223,-4.422131 2.59346,0 4.69635,2.102887 4.69635,4.696351 v 2.81809 c 0,0.93431 -0.68075,1.70877 -1.57372,1.85484 -0.17914,0.0289 -0.30455,0.19293 -0.30455,0.37345 z m 0,0"
       style="fill:#37545c;fill-opacity:1;fill-rule:nonzero;stroke:none;stroke-width:0.35277775"
       inkscape:connector-curvature="0" />
  </g>
</svg>
