<?xml version="1.0" encoding="UTF-8" standalone="no"?>
<svg
   xmlns:dc="http://purl.org/dc/elements/1.1/"
   xmlns:cc="http://creativecommons.org/ns#"
   xmlns:rdf="http://www.w3.org/1999/02/22-rdf-syntax-ns#"
   xmlns:svg="http://www.w3.org/2000/svg"
   xmlns="http://www.w3.org/2000/svg"
   xmlns:sodipodi="http://sodipodi.sourceforge.net/DTD/sodipodi-0.dtd"
   xmlns:inkscape="http://www.inkscape.org/namespaces/inkscape"
   id="svg752"
   version="1.1"
   viewBox="0 0 6.3343895 12.700051"
   height="12.700051mm"
   width="6.3343897mm"
   sodipodi:docname="letter_m.svg"
   inkscape:version="0.92.5 (2060ec1f9f, 2020-04-08)">
  <sodipodi:namedview
     pagecolor="#ffffff"
     bordercolor="#666666"
     borderopacity="1"
     objecttolerance="10"
     gridtolerance="10"
     guidetolerance="10"
     inkscape:pageopacity="0"
     inkscape:pageshadow="2"
     inkscape:window-width="793"
     inkscape:window-height="480"
     id="namedview7"
     showgrid="false"
     fit-margin-top="0"
     fit-margin-left="0"
     fit-margin-right="0"
     fit-margin-bottom="0"
     inkscape:zoom="0.58869701"
     inkscape:cx="-38.6233"
     inkscape:cy="13.6765"
     inkscape:window-x="4523"
     inkscape:window-y="262"
     inkscape:window-maximized="0"
     inkscape:current-layer="svg752" />
  <defs
     id="defs746" />
  <metadata
     id="metadata749">
    <rdf:RDF>
      <cc:Work
         rdf:about="">
        <dc:format>image/svg+xml</dc:format>
        <dc:type
           rdf:resource="http://purl.org/dc/dcmitype/StillImage" />
        <dc:title></dc:title>
      </cc:Work>
    </rdf:RDF>
  </metadata>
  <g
     transform="matrix(0.33866304,0,0,0.33866304,-29.602487,-20.245102)"
     id="layer1"
     style="fill:#37545c;fill-opacity:1">
    <path
       id="path26"
       d="M 104.23845,80.404582 V 63.529126 c 0,-0.931552 0.68075,-1.704633 1.57095,-1.849325 0.17914,-0.02893 0.30456,-0.192927 0.30456,-0.37345 v -1.152039 c 0,-0.206706 -0.1681,-0.374826 -0.37483,-0.374826 h -5.25032 c -0.45752,0.519518 -3.449216,2.87872 -3.726217,3.09783 -0.278378,-0.21911 -3.270074,-2.578312 -3.727591,-3.09783 h -5.250321 c -0.206728,0 -0.374827,0.16812 -0.374827,0.374826 v 1.152039 c 0,0.180523 0.125377,0.344512 0.304553,0.37345 0.8902,0.144692 1.570955,0.917773 1.570955,1.849325 v 30.001269 c 0,0.931555 -0.680755,1.704633 -1.570955,1.849329 -0.179176,0.02893 -0.304553,0.192926 -0.304553,0.373446 v 1.152041 c 0,0.206708 0.168099,0.374827 0.374827,0.374827 h 5.250321 V 64.464816 c 1.135485,0.774456 1.729422,1.293978 3.704166,3.351389 v 0.04823 c 0.0081,-0.0083 0.01517,-0.01654 0.02328,-0.0248 0.0071,0.0083 0.01517,0.01654 0.02187,0.0248 v -0.04823 c 1.974744,-2.057411 2.568681,-2.576933 3.704162,-3.351389 v 32.815222 h 5.25032 c 0.20673,0 0.37483,-0.168119 0.37483,-0.374827 V 95.75317 c 0,-0.18052 -0.12541,-0.344509 -0.30455,-0.373446 -0.8902,-0.144696 -1.57096,-0.917774 -1.57096,-1.849329 z m 0,0"
       style="fill:#37545c;fill-opacity:1;fill-rule:nonzero;stroke:none;stroke-width:0.35277775"
       inkscape:connector-curvature="0" />
  </g>
</svg>
