<?xml version="1.0" encoding="UTF-8" standalone="no"?>
<svg
   xmlns:dc="http://purl.org/dc/elements/1.1/"
   xmlns:cc="http://creativecommons.org/ns#"
   xmlns:rdf="http://www.w3.org/1999/02/22-rdf-syntax-ns#"
   xmlns:svg="http://www.w3.org/2000/svg"
   xmlns="http://www.w3.org/2000/svg"
   id="svg2879"
   version="1.1"
   viewBox="0 0 27.458832 10.81492"
   height="10.81492mm"
   width="27.458832mm">
  <defs
     id="defs2873" />
  <metadata
     id="metadata2876">
    <rdf:RDF>
      <cc:Work
         rdf:about="">
        <dc:format>image/svg+xml</dc:format>
        <dc:type
           rdf:resource="http://purl.org/dc/dcmitype/StillImage" />
        <dc:title></dc:title>
      </cc:Work>
    </rdf:RDF>
  </metadata>
  <g
     transform="translate(-72.449135,-129.06282)"
     id="layer1">
    <path
       id="path2717"
       d="m 79.109232,133.94658 c -0.02067,-0.0207 -0.05375,-0.0207 -0.07442,0 l -0.410654,0.41066 c -0.165365,0.16536 -0.165365,0.4327 0,0.59945 l 0.02067,0.0207 c 0.0303,0.0289 0.07717,0.0289 0.106108,0 l 0.395496,-0.39549 c 0.165365,-0.16537 0.165365,-0.43271 0,-0.59807 z m 0,0"
       style="fill:#004c66;fill-opacity:1;fill-rule:nonzero;stroke:none;stroke-width:0.35277778" />
    <path
       id="path2719"
       d="m 81.584187,138.21575 c 0.928797,0 1.681208,-0.75241 1.681208,-1.67983 0,-0.59807 -0.238403,-1.17271 -0.660082,-1.59439 l -1.559937,-1.56132 c -0.265963,-0.26596 -0.409279,-0.63114 -0.39412,-1.00872 0.0193,-0.49472 0.438217,-0.87919 0.932931,-0.87919 0.515387,0 0.932931,0.41754 0.932931,0.93431 v 0.39963 c 0,0.18466 -0.135046,0.339 -0.312815,0.36793 -0.03583,0.007 -0.06063,0.0386 -0.06063,0.0744 v 0.60358 c 0,0.0413 0.03443,0.0744 0.07579,0.0744 h 0.971518 c 0.03996,0 0.07442,-0.0331 0.07442,-0.0744 v -1.44556 c 0,-0.9288 -0.752411,-1.68121 -1.681208,-1.68121 -0.928797,0 -1.681205,0.75241 -1.681205,1.68121 0,0.55397 0.220486,1.08589 0.611848,1.47725 l 1.558561,1.55857 c 0.283877,0.28387 0.443727,0.6711 0.443727,1.07349 0,0.51538 -0.417544,0.93293 -0.932931,0.93293 -0.516763,0 -0.934311,-0.41755 -0.934311,-0.93293 v -0.43822 c 0,-0.18466 0.135051,-0.339 0.312815,-0.36794 0.03583,-0.007 0.06064,-0.0386 0.06064,-0.0744 v -0.60358 c 0,-0.0413 -0.03305,-0.0744 -0.07442,-0.0744 h -0.971523 c -0.04134,0 -0.07441,0.0331 -0.07441,0.0744 v 1.48415 c 0,0.92742 0.752408,1.67983 1.681205,1.67983"
       style="fill:#004c66;fill-opacity:1;fill-rule:nonzero;stroke:none;stroke-width:0.35277778" />
    <path
       id="path2721"
       d="m 90.381583,133.73299 v -1.4938 c 0,-0.82544 -0.668348,-1.49379 -1.493792,-1.49379 -0.825447,0 -1.493795,0.66835 -1.493795,1.49379 v 4.85621 c 0,0.18604 -0.136426,0.34038 -0.312815,0.36932 -0.03583,0.006 -0.06063,0.0372 -0.06063,0.0744 v 0.6022 c 0,0.0413 0.03305,0.0744 0.07441,0.0744 h 0.971519 c 0.03996,0 0.07442,-0.0331 0.07442,-0.0744 v -5.90214 c 0,-0.41341 0.334863,-0.74689 0.746897,-0.74689 0.41341,0 0.746894,0.33348 0.746894,0.74689 v 1.56959 c 0,0.5774 -0.467155,1.04593 -1.045929,1.04593 -0.04134,0 -0.07441,0.0331 -0.07441,0.0744 v 0.66835 c 0,0.19844 0.07992,0.38999 0.220486,0.53055 l 0.456131,0.45613 c 0.166744,0.16674 0.289387,0.36793 0.363802,0.58566 0.04961,0.14745 -0.06339,0.29904 -0.219107,0.29904 -0.04134,0 -0.07442,0.0331 -0.07442,0.0744 v 0.59807 c 0,0.0413 0.03306,0.0744 0.07442,0.0744 h 0.971515 c 0.04134,0 0.07441,-0.0331 0.07441,-0.0744 v -0.67248 c -0.0441,-0.52917 -0.281124,-1.02802 -0.660085,-1.4056 l -0.491959,-0.49334 c -0.03721,-0.0372 -0.0248,-0.10059 0.0248,-0.12126 0.662834,-0.28664 1.127235,-0.94672 1.127235,-1.71566"
       style="fill:#004c66;fill-opacity:1;fill-rule:nonzero;stroke:none;stroke-width:0.35277778" />
    <path
       id="path2723"
       d="m 94.117443,133.73299 v -1.4938 c 0,-0.82544 -0.668348,-1.49379 -1.493791,-1.49379 -0.825444,0 -1.493796,0.66835 -1.493796,1.49379 v 4.85621 c 0,0.18604 -0.136422,0.34038 -0.314191,0.36932 -0.03447,0.006 -0.06063,0.0372 -0.06063,0.0744 v 0.6022 c 0,0.0413 0.03447,0.0744 0.07579,0.0744 h 0.970139 c 0.04134,0 0.07579,-0.0331 0.07579,-0.0744 v -5.90214 c 0,-0.41341 0.333484,-0.74689 0.746898,-0.74689 0.412034,0 0.746897,0.33348 0.746897,0.74689 v 1.56959 c 0,0.5774 -0.468534,1.04593 -1.045933,1.04593 -0.04134,0 -0.07441,0.0331 -0.07441,0.0744 v 0.66835 c 0,0.19844 0.07855,0.38999 0.220486,0.53055 l 0.456127,0.45613 c 0.165365,0.16674 0.289391,0.36793 0.363802,0.58566 0.04961,0.14745 -0.06339,0.29904 -0.219106,0.29904 -0.04134,0 -0.07442,0.0331 -0.07442,0.0744 v 0.59807 c 0,0.0413 0.03306,0.0744 0.07442,0.0744 h 0.971518 c 0.04134,0 0.07441,-0.0331 0.07441,-0.0744 v -0.67248 c -0.0441,-0.52917 -0.281118,-1.02802 -0.660079,-1.4056 l -0.491959,-0.49334 c -0.03721,-0.0372 -0.0248,-0.10059 0.0248,-0.12126 0.662838,-0.28664 1.127235,-0.94672 1.127235,-1.71566"
       style="fill:#004c66;fill-opacity:1;fill-rule:nonzero;stroke:none;stroke-width:0.35277778" />
    <path
       id="path2725"
       d="m 77.793205,138.75732 h -0.22462 c -0.03996,0 -0.07442,0.0317 -0.07442,0.073 0.0014,0.16537 -0.133671,0.30041 -0.299036,0.30041 h -3.549827 c -0.04134,0 -0.07441,-0.0331 -0.07441,-0.0744 l -0.01101,-8.9476 c 0,-0.16537 0.133668,-0.29904 0.299032,-0.29904 0.04134,0 0.07442,-0.0331 0.07442,-0.0744 v -0.59807 c 0,-0.0413 -0.03305,-0.0744 -0.07442,-0.0744 H 72.8874 c -0.04134,0 -0.07442,0.0331 -0.07442,0.0744 l 0.0096,9.62009 c 0,0.18465 -0.135047,0.33899 -0.312815,0.36793 -0.03583,0.007 -0.06063,0.0386 -0.06063,0.0744 v 0.60358 c 0,0.0413 0.03447,0.0744 0.07579,0.0744 h 5.342654 v -1.04593 c 0,-0.0413 -0.03306,-0.0744 -0.07441,-0.0744"
       style="fill:#004c66;fill-opacity:1;fill-rule:nonzero;stroke:none;stroke-width:0.35277778" />
    <path
       id="path2727"
       d="m 99.836304,139.13076 c -0.16674,0.001 -0.301791,-0.13367 -0.301791,-0.29903 l -0.0096,-9.02202 v -0.67248 c -3.1e-5,-0.0413 -0.0345,-0.0744 -0.07582,-0.0744 h -19.47444 c -0.03996,0 -0.07166,0.0317 -0.07166,0.0717 v 0.60358 c 0,0.04 0.03168,0.0717 0.07166,0.0717 h 18.72754 c 0.04134,0 0.07579,0.0331 0.07579,0.0744 l 0.0083,9.13226 c 0,0.0634 -0.04961,0.11437 -0.112999,0.11437 H 80.013225 c -0.06064,0 -0.110243,0.0496 -0.110243,0.11162 v 0.52366 c 0,0.062 0.04961,0.11162 0.110243,0.11162 h 19.820322 c 0.04134,0 0.07442,-0.0331 0.07442,-0.0744 v -0.59118 c 0,-0.0413 -0.0303,-0.0813 -0.07166,-0.0813"
       style="fill:#004c66;fill-opacity:1;fill-rule:nonzero;stroke:none;stroke-width:0.35277778" />
    <path
       id="path2729"
       d="m 84.852895,134.83542 c -0.04134,0 -0.07442,0.0331 -0.07442,0.0744 v 0.59807 c 0,0.0413 0.03306,0.0744 0.07442,0.0744 0.990808,0 1.794203,-0.8034 1.794203,-1.79421 v -1.54892 c 0,-0.82544 -0.669723,-1.49379 -1.495171,-1.49379 -0.825443,0 -1.493792,0.66835 -1.493792,1.49379 v 4.48276 c 0,0.82545 0.668349,1.49517 1.493792,1.49517 0.825448,0 1.495171,-0.66972 1.495171,-1.49517 v -0.40101 c 0,-0.0413 -0.03443,-0.0744 -0.07579,-0.0744 H 85.97324 c -0.04134,0 -0.07442,0.0331 -0.07442,0.0744 v 0.40101 c 0,0.41341 -0.334864,0.7469 -0.746898,0.7469 -0.412034,0 -0.746897,-0.33349 -0.746897,-0.7469 v -4.48276 c 0,-0.41203 0.334863,-0.74689 0.746897,-0.74689 0.412034,0 0.746898,0.33486 0.746898,0.74689 v 1.54892 c 0,0.57878 -0.468535,1.04731 -1.04593,1.04731"
       style="fill:#004c66;fill-opacity:1;fill-rule:nonzero;stroke:none;stroke-width:0.35277778" />
    <path
       id="path2731"
       d="m 96.455976,135.01594 c 0,0 0.07992,-0.0496 0.152961,-0.11438 0.04823,-0.0413 0.124026,-0.007 0.124026,0.0565 v 2.43637 c 0,0.0413 -0.03306,0.0744 -0.07442,0.0744 h -0.672478 c -0.413413,0 -0.746898,-0.33349 -0.746898,-0.7469 0,-0.81166 0.784105,-1.42765 1.216809,-1.70601 m -1.965082,1.70601 c 0,0.82545 0.669728,1.4938 1.495171,1.4938 h 1.792827 c 0.04134,0 0.07442,-0.0331 0.07442,-0.0744 v -0.6022 c 0,-0.0358 -0.0248,-0.0689 -0.06064,-0.0744 -0.176389,-0.0289 -0.312815,-0.18328 -0.312815,-0.36932 v -4.85621 c 0,-0.82544 -0.668348,-1.49379 -1.493792,-1.49379 -0.825443,0 -1.495171,0.66835 -1.495171,1.49379 v 0.66146 c 0,0.5774 0.468531,1.04593 1.04593,1.04593 0.04134,0 0.07579,-0.0331 0.07579,-0.0744 v -0.60358 c 0,-0.0358 -0.0248,-0.0675 -0.06064,-0.0744 -0.177769,-0.0289 -0.312816,-0.1819 -0.312816,-0.36793 v -0.58705 c 0,-0.41341 0.333485,-0.74689 0.746898,-0.74689 0.412034,0 0.746898,0.33348 0.746898,0.74689 v 1.12035 c 0,0.40652 -0.359668,0.80891 -0.672483,1.08176 l -0.574643,0.41892 c -0.599447,0.40239 -0.994943,1.0859 -0.994943,1.86173"
       style="fill:#004c66;fill-opacity:1;fill-rule:nonzero;stroke:none;stroke-width:0.35277778" />
    <path
       id="path2733"
       d="m 76.747272,137.03339 c 0,0.0413 -0.03443,0.0744 -0.07579,0.0744 h -0.672483 c -0.412033,0 -0.746897,-0.33348 -0.746897,-0.74689 0,-0.81167 0.785481,-1.42765 1.216808,-1.70601 0,0 0.07993,-0.0496 0.15434,-0.11438 0.04823,-0.0413 0.124023,-0.007 0.124023,0.0565 z m 1.059713,0.0703 c -0.177768,-0.0289 -0.312816,-0.18328 -0.312816,-0.36932 v -3.73586 c 0,-0.82544 -0.669727,-1.49379 -1.495171,-1.49379 -0.824067,0 -1.493795,0.66835 -1.493795,1.49379 v 0.0744 c 0,0.57877 0.468535,1.04593 1.045933,1.04593 0.04134,0 0.07442,-0.0331 0.07442,-0.0744 v -0.59669 c 0,-0.0413 -0.03306,-0.0758 -0.07442,-0.0758 -0.165364,0 -0.299035,-0.13367 -0.299035,-0.29903 v -0.0744 c 0,-0.41203 0.334864,-0.74689 0.746897,-0.74689 0.41341,0 0.748274,0.33486 0.748274,0.74689 0,0.40652 -0.361043,0.80891 -0.672483,1.08176 l -0.576019,0.41893 c -0.599447,0.40238 -0.993567,1.08589 -0.993567,1.86173 0,0.82544 0.669728,1.49517 1.493795,1.49517 h 1.794207 c 0.04134,0 0.07441,-0.0344 0.07441,-0.0758 v -0.60358 c 0,-0.0358 -0.0248,-0.0675 -0.06063,-0.073"
       style="fill:#004c66;fill-opacity:1;fill-rule:nonzero;stroke:none;stroke-width:0.35277778" />
  </g>
</svg>
